<svg version="1.1" id="Layer_1" xmlns="http://www.w3.org/2000/svg" xmlns:xlink="http://www.w3.org/1999/xlink" x="0px" y="0px"
	 width="100%" viewBox="0 0 1024 1024" enable-background="new 0 0 1024 1024" xml:space="preserve">
<path fill="#000000" opacity="1.000000" stroke="none" 
	d="
M881.808899,522.582336 
	C880.109436,547.849548 876.284790,572.275818 869.369141,596.195740 
	C854.661377,647.066406 830.227783,692.526794 794.869324,732.134033 
	C751.543457,780.666077 698.751343,814.312073 636.994812,834.343567 
	C602.534851,845.521057 567.267273,851.154053 531.085083,852.475403 
	C484.129822,854.190186 438.486298,847.657654 393.996002,832.826294 
	C359.005737,821.161865 326.441254,804.633972 296.265472,783.391846 
	C268.423309,763.792603 243.730194,740.834839 222.416061,714.287598 
	C186.627625,669.712280 162.793427,619.519592 151.728165,563.346008 
	C146.203079,535.297546 143.713028,506.981140 144.906158,478.434418 
	C147.112305,425.650146 159.546310,375.380676 184.216324,328.547058 
	C223.858124,253.290955 283.072540,198.779144 360.674530,164.149826 
	C397.003937,147.938080 435.025055,137.892715 474.569519,133.939606 
	C526.582703,128.740005 577.520752,134.093277 627.387146,150.063675 
	C689.670166,170.010666 743.228333,203.732819 787.818176,251.452393 
	C812.076477,277.413330 831.733154,306.642670 847.180359,338.743347 
	C864.303833,374.327271 875.056702,411.711517 879.992737,450.794830 
	C882.984680,474.484436 882.937683,498.300476 881.808899,522.582336 
M212.008850,644.626892 
	C222.876602,614.106750 239.728653,587.517456 263.778870,565.626465 
	C271.307373,558.773926 279.262695,552.470154 287.480408,546.475525 
	C289.655884,544.888611 292.146057,543.067444 289.495972,540.032288 
	C285.371582,535.308533 287.169464,531.035095 290.444855,527.053345 
	C294.901672,521.635376 300.143402,516.963379 305.543091,512.509888 
	C318.778107,501.594055 333.075531,491.922668 345.308685,479.857513 
	C352.120972,473.138824 359.685730,468.552338 369.031006,467.096649 
	C374.113831,466.304932 379.293671,466.100952 384.437653,465.746552 
	C389.880768,465.371552 392.029297,463.288239 391.575439,457.849121 
	C391.231323,453.725037 390.207794,449.662079 389.638336,445.550903 
	C389.219940,442.530487 387.800323,440.862976 384.677582,440.222260 
	C375.842926,438.409698 368.156036,434.214081 361.276794,428.426697 
	C359.816040,427.197815 358.506714,425.487122 356.175140,425.639771 
	C354.869415,427.109863 354.804199,429.000916 354.317871,430.718536 
	C352.148224,438.381897 347.188812,441.026703 339.914917,438.063232 
	C334.663757,435.923889 329.639587,433.283051 325.246918,429.606354 
	C321.777924,426.702789 320.171753,422.982147 320.959778,418.516693 
	C321.940796,412.957855 323.108917,407.428406 324.336395,401.917450 
	C327.951294,385.687408 334.291992,370.195038 337.130585,353.718719 
	C338.021942,348.545013 336.395233,346.235596 332.272766,343.814728 
	C321.140930,337.277588 312.203400,328.419067 306.297699,316.806458 
	C303.197998,310.711456 302.294189,304.274811 303.398956,297.406677 
	C305.067474,287.033966 310.403778,278.685699 317.627045,271.607666 
	C331.079071,258.426117 345.298798,246.059753 360.200348,234.538940 
	C386.427826,214.261703 414.222229,196.664413 445.999573,186.230820 
	C460.281799,181.541458 474.849823,177.699722 489.990326,178.212341 
	C505.826172,178.748505 520.759521,183.680969 535.180359,189.947266 
	C573.402100,206.555771 608.175049,229.230820 642.975220,251.810242 
	C655.087891,259.669281 659.421692,271.200073 657.689819,285.460297 
	C655.527466,303.264587 648.033142,318.580841 636.655212,332.115692 
	C633.957336,335.325012 633.451721,337.219360 637.142395,340.055115 
	C643.699341,345.093140 648.707825,351.581970 652.058716,359.182495 
	C665.876221,390.523529 651.824524,425.142395 619.030457,437.105865 
	C609.721863,440.501709 607.933472,445.789276 607.343018,453.622070 
	C607.230286,455.117432 607.131042,456.614014 607.043335,458.111084 
	C606.794861,462.352325 608.452087,465.498596 612.261108,467.544647 
	C618.424438,470.855255 624.293884,474.855713 630.727966,477.488312 
	C642.593567,482.343323 650.519531,490.590088 656.706665,501.724915 
	C668.312561,522.611816 681.859436,541.843201 701.615417,556.501831 
	C727.348450,575.595398 746.285583,600.617249 759.638733,629.808777 
	C769.785767,651.991516 776.890259,675.208313 783.367859,698.651367 
	C783.987793,700.895142 783.867432,703.593445 786.604004,705.445435 
	C822.629272,661.300415 845.436401,611.558899 855.381897,554.893982 
	C852.065002,554.893982 849.925659,554.893982 847.786255,554.893982 
	C809.123962,554.893799 770.460144,554.717590 731.800720,555.050659 
	C724.580261,555.112854 718.852051,553.560547 714.115173,548.102051 
	C710.934509,544.436707 706.137390,542.387878 703.293274,538.146362 
	C705.530701,536.292480 707.787476,536.941711 709.859070,536.939331 
	C755.853760,536.886414 801.848511,536.882202 847.843262,536.874573 
	C858.555786,536.872803 858.555725,536.882629 859.548706,526.368225 
	C860.301025,518.401184 860.199158,518.273193 852.141113,518.273682 
	C797.814087,518.277100 743.487000,518.295593 689.159973,518.268372 
	C687.056763,518.267273 684.415100,519.185181 682.962830,517.329529 
	C679.539368,512.955078 676.296814,508.396179 673.786987,503.140900 
	C674.886047,502.644867 675.496399,502.108978 676.057495,502.156311 
	C681.905579,502.649719 682.465698,499.239502 682.888367,494.411652 
	C684.323303,478.017487 686.374451,461.678040 688.114746,445.309662 
	C690.364441,424.150574 692.728088,403.000916 694.672852,381.813232 
	C695.675842,370.886475 700.432922,365.920685 711.417603,365.680328 
	C719.104980,365.512146 726.712341,366.527161 734.317261,367.348297 
	C737.992615,367.745148 739.467529,366.787140 739.719299,363.004211 
	C740.356201,353.434753 744.064453,349.965118 753.622620,349.884918 
	C765.453552,349.785614 777.287415,349.789551 789.117859,349.930084 
	C800.520325,350.065521 804.347046,353.885864 804.866760,365.220032 
	C804.912537,366.217957 805.016113,367.239502 804.866638,368.215454 
	C804.300171,371.914215 806.120483,372.754974 809.454407,372.686584 
	C817.616699,372.519196 825.784912,372.653137 833.950378,372.606018 
	C835.366272,372.597839 837.016907,373.089447 838.027039,371.395081 
	C837.942810,369.032196 836.985291,366.896606 836.036682,364.778961 
	C828.815796,348.659515 821.081543,332.832825 811.885986,317.693146 
	C780.063660,265.300385 736.855835,224.901871 683.173401,195.760971 
	C641.902039,173.357285 597.733948,159.854568 550.935486,155.070160 
	C514.227722,151.317368 477.754059,152.914124 441.586029,159.982361 
	C406.895386,166.761887 373.857666,178.379486 342.720795,195.265030 
	C295.608002,220.814255 256.496216,255.383743 225.947968,299.409637 
	C194.328247,344.979706 174.708649,395.190552 169.098755,450.587280 
	C165.916565,482.011017 165.770126,513.484314 170.606888,544.703491 
	C176.231766,581.009644 188.059250,615.397156 205.751373,647.677368 
	C206.570618,649.172119 206.982742,651.156006 209.413803,651.893799 
	C210.212601,649.666626 210.986343,647.509277 212.008850,644.626892 
M386.250610,745.529541 
	C386.613953,748.328247 386.983673,751.126221 387.339539,753.925842 
	C389.371307,769.911133 391.348022,785.903687 393.473419,801.876465 
	C393.895050,805.045044 394.914154,807.982666 398.576202,809.185242 
	C420.451782,816.369324 442.782654,821.548401 465.592194,824.680847 
	C468.811676,825.122925 470.421265,824.208252 470.761993,820.555786 
	C472.583771,801.027222 474.658112,781.522156 476.629791,762.007507 
	C479.688538,731.734314 482.331635,701.411743 485.940216,671.204346 
	C488.050446,653.539612 486.244141,647.334717 511.007751,643.289368 
	C546.609558,637.473694 582.073547,630.818604 617.653809,624.865356 
	C630.591431,622.700745 643.595032,620.184021 656.798279,620.755005 
	C666.975525,621.195190 676.557129,623.292480 679.730225,635.236694 
	C680.448792,637.941467 682.718506,638.032959 684.993286,637.790405 
	C690.446350,637.208984 695.846191,636.133179 701.394470,636.598511 
	C710.343567,637.349304 717.749084,643.957031 719.318054,652.747864 
	C720.262451,658.038879 720.317383,663.339539 719.761963,668.674561 
	C718.642761,679.424988 717.606567,690.184082 716.473083,700.932983 
	C716.186951,703.646423 716.888367,705.287964 719.839294,706.004211 
	C723.385376,706.864990 726.847900,708.128662 730.275757,709.407776 
	C743.264771,714.254700 749.030945,722.547241 749.172974,736.327148 
	C749.194336,738.401733 748.800232,740.555847 749.887451,743.094421 
	C752.479004,740.859558 754.569519,738.712402 756.989502,737.042725 
	C761.709595,733.786133 762.641602,730.036682 761.160767,724.314880 
	C755.286194,701.615784 750.578369,678.607544 743.600647,656.200012 
	C737.797363,637.564026 731.739746,618.776062 719.211243,603.454041 
	C708.789246,590.708130 697.610901,578.544250 687.003174,565.917664 
	C684.060242,562.414673 680.151184,560.528625 675.629822,560.472839 
	C670.637878,560.411133 666.253418,562.593628 662.136047,565.203125 
	C653.242371,570.839844 643.809998,575.377136 634.091858,579.389587 
	C611.476135,588.726868 588.334900,596.788208 566.218201,607.336731 
	C553.597351,613.356262 540.982544,619.308716 527.622559,623.674561 
	C513.343323,628.340881 499.901093,627.806396 486.819061,620.048340 
	C475.932739,613.592468 465.083405,607.020935 453.847778,601.216797 
	C411.254150,579.213501 365.198120,566.849243 319.484650,553.581055 
	C315.467926,552.415222 311.728180,553.174377 308.158539,555.733643 
	C300.169373,561.461426 292.135468,567.123901 284.610504,573.456421 
	C282.124207,575.548706 279.381439,577.501282 277.946228,580.577454 
	C279.536163,582.631470 281.714630,583.089539 283.675476,583.921265 
	C333.296722,604.969055 363.341156,642.411072 376.416962,694.241333 
	C380.613403,710.875427 383.441559,727.741028 386.250610,745.529541 
M497.754456,453.803619 
	C512.094360,452.529144 523.112122,457.643341 530.267151,470.474335 
	C532.454346,474.396576 535.056396,478.086182 537.430054,481.906189 
	C539.121582,484.628479 541.099731,485.422607 544.063843,483.577209 
	C568.327759,468.470917 585.587524,447.697815 591.531128,419.548004 
	C597.841187,389.663116 598.959473,359.165741 597.651245,328.627502 
	C597.502686,325.158508 595.993225,323.284302 592.658630,322.145782 
	C564.431763,312.508240 535.483032,306.847382 505.626434,306.322571 
	C474.681580,305.778595 444.696381,311.559387 415.243591,320.582489 
	C401.450317,324.808167 401.623901,324.830444 401.269043,339.327576 
	C400.685211,363.176941 402.406860,386.778320 405.991974,410.411560 
	C410.989380,443.354858 429.630371,466.032288 456.846924,483.088898 
	C460.056366,485.100250 462.255646,484.700897 464.260437,481.448669 
	C466.794037,477.338562 469.708160,473.463013 472.242004,469.353058 
	C477.924500,460.135986 485.570190,454.156189 497.754456,453.803619 
M470.037048,199.520523 
	C468.101929,200.010666 466.160858,200.478500 464.232605,200.994308 
	C437.618744,208.113358 414.164886,221.676300 391.593018,236.922394 
	C370.864899,250.923187 351.188568,266.342712 332.781342,283.264648 
	C321.210083,293.902222 320.888855,304.957184 330.603058,317.262634 
	C333.944031,321.494751 337.987579,324.901031 342.595581,327.703003 
	C355.089264,335.299927 358.550720,334.184265 364.308746,320.864044 
	C365.918671,317.139740 365.357819,314.493347 361.651978,312.601593 
	C358.242767,310.861267 354.729980,309.249969 351.556915,307.139587 
	C347.574097,304.490631 347.692413,301.367828 351.880951,299.082458 
	C368.833008,289.832764 385.793671,280.587555 403.820312,273.509796 
	C428.410858,263.854858 453.695038,257.036133 480.045532,254.306961 
	C487.545654,253.530167 492.408722,255.540741 493.222595,260.677582 
	C494.087708,266.137787 491.196472,269.125885 483.147064,270.271484 
	C460.192566,273.538330 437.653351,278.496948 415.766022,286.233215 
	C411.110016,287.878967 410.377655,289.857483 411.814178,295.163452 
	C413.058777,299.760651 415.708374,300.053009 419.787109,298.853333 
	C428.242615,296.366150 436.773956,294.083984 445.367554,292.127930 
	C483.262360,283.502533 521.238647,282.912720 559.200256,291.661346 
	C579.183533,296.266663 598.653992,302.549927 617.628418,310.355865 
	C624.289246,313.096100 626.143066,312.461395 629.774414,306.137054 
	C632.946289,300.613068 635.120667,294.665375 636.477783,288.453766 
	C638.704956,278.260223 636.562866,270.277039 626.979980,264.049530 
	C597.494019,244.887939 568.050232,225.655487 535.892944,211.209061 
	C515.325073,201.969070 494.306458,193.645065 470.037048,199.520523 
M603.342285,817.740540 
	C612.161499,815.307373 621.017395,812.998413 629.790100,810.407837 
	C639.564453,807.521484 639.531006,807.409912 639.591919,797.574646 
	C639.595032,797.074951 639.562500,796.566589 639.640381,796.077209 
	C640.315063,791.837708 638.571594,788.957886 635.262695,786.244080 
	C629.754700,781.726440 627.521118,775.648315 628.518555,768.434570 
	C629.460815,761.619324 632.931335,756.306091 638.029114,751.975708 
	C640.315491,750.033447 640.833435,748.418579 639.012634,745.669556 
	C634.783569,739.284729 635.257385,734.684143 640.647217,728.636902 
	C646.471863,722.101807 653.337036,716.946594 661.482788,713.485229 
	C671.038879,709.424500 680.775085,706.193176 691.218628,705.511536 
	C695.269287,705.247253 697.995667,703.857544 698.360718,699.099365 
	C699.289307,686.996338 700.789917,674.934814 701.598999,662.825867 
	C702.080811,655.615479 699.351929,653.585388 692.140686,654.794983 
	C681.318665,656.610291 670.493530,658.412720 659.694153,660.356567 
	C626.137146,666.396790 592.596558,672.528809 559.034851,678.542847 
	C555.151855,679.238647 553.185181,680.950500 553.300964,685.138062 
	C553.461975,690.958008 553.440552,696.793396 552.459717,702.580200 
	C551.866150,706.082458 553.643250,707.518433 557.017883,707.280823 
	C559.509033,707.105408 562.005920,706.697388 564.487793,706.777954 
	C568.419922,706.905579 571.808289,708.099915 572.314148,712.777222 
	C572.758850,716.889465 570.448914,719.368958 565.353394,720.207336 
	C562.562317,720.666565 559.746216,721.076477 556.926086,721.233459 
	C552.510803,721.479126 550.352295,723.433960 550.184753,728.069275 
	C550.017212,732.704834 549.111023,737.309631 548.638977,741.939148 
	C547.813293,750.038574 547.063416,758.145874 546.299683,766.251526 
	C546.000549,769.426453 547.417358,770.881348 550.659546,770.708008 
	C553.318298,770.565979 555.993103,770.535522 558.652893,770.645264 
	C562.636292,770.809631 565.464844,772.742920 565.823547,776.861328 
	C566.151794,780.629883 563.660889,782.673706 560.233337,783.410950 
	C556.992004,784.108154 553.699158,784.689026 550.399292,784.960693 
	C546.218018,785.304932 544.282227,787.175781 543.929260,791.510132 
	C543.187439,800.619080 542.182251,809.716736 540.942688,818.772156 
	C539.845215,826.789978 540.011169,827.276794 547.923462,826.613586 
	C566.336487,825.070068 584.523071,822.055542 603.342285,817.740540 
M322.519257,632.974060 
	C307.955017,617.231934 290.969208,605.456238 269.804199,600.299805 
	C261.487152,598.273499 261.564148,598.064331 256.588593,605.318726 
	C242.148941,626.372070 234.280731,650.207581 227.114716,674.373901 
	C225.834946,678.689758 226.672913,681.906006 229.316879,685.421204 
	C255.737167,720.548218 287.537750,749.871887 324.287018,773.884033 
	C325.978699,774.989380 327.526733,776.816895 330.111938,776.357300 
	C331.122894,772.948486 329.787170,769.697998 329.573242,766.459473 
	C328.609344,751.866211 327.021484,737.312500 326.150787,722.715210 
	C325.448059,710.933655 324.204834,699.127380 325.628723,687.297180 
	C325.857025,685.400391 326.075684,683.527527 328.286163,683.000610 
	C330.339142,682.511169 331.906219,683.610718 332.949524,685.205994 
	C334.126160,687.005188 335.138855,688.936890 336.014008,690.903870 
	C342.135803,704.663269 345.780457,719.216736 349.252533,733.778503 
	C353.454254,751.400574 357.123749,769.149048 361.097473,786.826294 
	C361.549652,788.837769 361.906647,791.772339 364.756714,791.241272 
	C367.208649,790.784485 366.711243,788.036194 366.527374,786.125305 
	C364.233673,762.284790 363.553833,738.298157 359.756653,714.591248 
	C354.886017,684.182861 344.178192,656.482727 322.519257,632.974060 
M537.981506,569.467102 
	C547.259094,561.577881 555.936218,553.054688 564.097351,544.036011 
	C571.589722,535.756287 578.700623,527.134766 583.703491,517.034424 
	C585.348206,513.713989 586.463928,510.301453 584.830139,506.496124 
	C582.535767,501.152313 580.967896,500.628845 576.590515,504.363312 
	C568.735168,511.064911 559.879517,516.057129 549.905701,518.513428 
	C544.871155,519.753357 541.946045,522.156433 539.678284,526.725220 
	C534.829468,536.493774 532.140564,537.327332 521.874695,533.111755 
	C518.506958,531.728821 516.246521,532.308655 514.206116,535.306580 
	C512.528625,537.771301 510.604279,540.117615 508.507507,542.237732 
	C502.841278,547.966858 498.131226,547.957947 492.654083,542.222595 
	C490.592072,540.063293 488.750122,537.665405 487.019196,535.226257 
	C485.204163,532.668701 483.278656,532.109070 480.200134,533.216187 
	C468.694336,537.353943 466.391083,536.303894 461.281250,525.273132 
	C460.125305,522.777710 458.910828,520.664429 455.754639,520.159546 
	C440.470581,517.715210 427.406555,510.860352 416.473053,499.930084 
	C414.218079,497.675781 412.486603,498.261627 410.795593,500.661133 
	C408.200165,504.344116 408.664948,507.172974 412.710480,511.079926 
	C426.987030,524.867493 442.300995,537.448853 457.868530,549.723022 
	C472.778687,561.478943 487.854492,573.016541 503.406281,583.927307 
	C509.245667,588.024048 514.757019,588.179626 520.331238,583.721375 
	C526.051941,579.145874 531.742065,574.532288 537.981506,569.467102 
M452.126495,581.323730 
	C461.487366,585.429199 470.848267,589.534668 480.209137,593.640198 
	C479.956573,592.455566 479.360870,591.909485 478.718140,591.425903 
	C461.278870,578.304077 444.284943,564.615601 427.893250,550.220154 
	C407.958557,532.713196 389.812744,513.432739 372.747314,493.118958 
	C367.418762,486.776093 365.986877,486.741943 359.740265,492.087494 
	C347.847931,502.264435 336.010498,512.506958 324.260254,522.847229 
	C322.125763,524.725647 319.428986,526.346802 318.453949,530.261780 
	C363.610382,545.344604 408.110107,561.658386 452.126495,581.323730 
M859.978760,499.149780 
	C861.031250,488.827087 859.937439,478.513733 859.579956,468.217987 
	C859.100708,454.417114 857.150330,440.738831 854.456177,427.175171 
	C853.756470,423.653107 852.185181,422.199463 848.396729,422.274841 
	C836.572144,422.510071 824.740173,422.354889 812.911255,422.398529 
	C805.286499,422.426666 805.104431,422.700562 805.007141,430.252136 
	C804.719666,452.570435 805.630432,474.899323 804.458496,497.207672 
	C804.276733,500.667450 805.583496,501.939606 809.050842,501.915985 
	C824.211243,501.812897 839.372803,501.907684 854.533813,501.867310 
	C856.437744,501.862244 858.661865,502.365356 859.978760,499.149780 
M644.920044,549.357544 
	C648.004761,547.716675 651.030579,545.950623 654.188599,544.465393 
	C658.535706,542.420898 659.016785,539.825928 656.398560,535.832520 
	C649.284424,524.981689 642.579956,513.860718 635.394592,503.058685 
	C630.919250,496.330658 623.274780,494.413879 616.667114,491.259277 
	C615.993286,491.996185 615.614136,492.213867 615.576721,492.479645 
	C612.859192,511.777130 601.856567,526.869263 590.318481,541.570190 
	C574.449951,561.788818 555.587952,579.215576 537.451660,597.311035 
	C536.120789,598.638916 534.156677,599.555847 533.753845,602.956177 
	C571.647217,586.324402 607.640625,567.354126 644.920044,549.357544 
M686.625671,787.073303 
	C695.021484,782.667969 703.741333,778.843689 711.606079,773.480164 
	C720.814941,767.200073 726.922485,758.382141 729.224609,747.712280 
	C732.291199,733.499084 729.620422,727.052673 714.725708,723.566101 
	C704.042419,721.065247 693.268921,721.818665 682.571594,723.994934 
	C674.357056,725.665955 666.475037,728.191284 659.448608,732.902405 
	C657.793091,734.012329 656.074768,735.312073 656.407227,737.673035 
	C656.774841,740.283020 658.959839,741.031860 661.070557,741.549194 
	C666.074463,742.775696 671.085388,743.831604 676.323914,743.719849 
	C681.633301,743.606689 686.980530,743.356445 692.250061,744.484253 
	C694.741333,745.017395 696.799011,746.184143 696.928711,748.896973 
	C697.066650,751.782043 694.814270,752.736511 692.403748,753.333740 
	C686.417908,754.816711 680.302490,755.468445 674.209839,756.297485 
	C666.800049,757.305664 659.330872,758.193604 652.603149,761.842834 
	C649.123718,763.730164 646.974731,766.550537 647.365845,770.719849 
	C647.738037,774.687744 650.739075,776.195862 653.982117,777.336609 
	C657.809753,778.682983 661.803162,778.832642 665.810974,778.801514 
	C670.305359,778.766602 674.800171,778.679871 679.293884,778.720703 
	C682.146667,778.746643 685.705322,778.716187 685.864807,782.408264 
	C686.013245,785.844482 682.527283,785.905457 679.918884,786.318848 
	C679.591492,786.370728 679.250793,786.338806 678.923462,786.390808 
	C672.692749,787.380798 666.428589,788.204041 660.245544,789.434326 
	C656.177307,790.243835 655.595764,793.591064 656.554504,796.875671 
	C657.649170,800.626221 660.402039,799.617676 663.003723,798.368469 
	C670.647949,794.698181 678.310364,791.065735 686.625671,787.073303 
M786.723083,471.992950 
	C786.724609,452.183624 786.703186,432.374207 786.752258,412.565002 
	C786.759705,409.572723 786.416260,407.314392 782.555298,407.382446 
	C775.066711,407.514465 767.573792,407.468292 760.083496,407.401093 
	C757.381653,407.376862 756.133911,408.441376 756.133911,411.223663 
	C756.134094,431.365448 756.089844,451.507294 756.018616,471.648956 
	C756.008179,474.609741 757.319275,475.787415 760.272949,475.743713 
	C767.762268,475.632874 775.254211,475.688568 782.745056,475.688232 
	C784.739563,475.688171 786.436218,475.311310 786.723083,471.992950 
M731.703918,408.592926 
	C726.402954,408.167023 721.108459,407.605804 715.799316,407.349792 
	C709.290222,407.035889 708.937500,407.548828 708.348633,414.158386 
	C707.464783,424.078644 706.435913,433.985931 705.499634,443.901642 
	C704.453735,454.978760 703.382019,466.054230 702.465637,477.142273 
	C702.276672,479.427826 701.389893,482.377441 705.403381,482.751282 
	C711.524841,483.321533 717.638000,483.998871 723.741150,484.742035 
	C727.871399,485.245026 729.779175,483.989929 729.844849,479.396088 
	C729.939697,472.765778 730.821167,466.148071 731.329102,459.522064 
	C732.485107,444.444031 733.639221,429.365723 734.735840,414.283295 
	C734.888550,412.183289 735.323853,409.807129 731.703918,408.592926 
M505.997314,713.672363 
	C503.340485,715.635986 503.646820,718.679993 503.405212,721.390808 
	C502.342499,733.312744 501.484955,745.252808 500.458069,757.178101 
	C500.243134,759.674438 501.098938,761.316101 503.270203,762.469604 
	C507.386108,764.656250 511.376953,767.095154 515.572327,769.112000 
	C526.120850,774.182922 529.377808,772.097107 529.683044,760.537964 
	C529.959351,750.072693 529.882446,739.545105 534.923157,729.848389 
	C536.876038,726.091675 535.072937,723.778564 531.290466,722.850586 
	C524.765320,721.249573 518.805481,718.304321 512.814575,715.391052 
	C510.902618,714.461304 509.033295,713.189392 505.997314,713.672363 
M525.650146,810.290527 
	C526.060181,803.999878 526.468750,797.709106 526.881042,791.418640 
	C527.050781,788.829285 526.479370,786.751587 523.434570,786.347778 
	C516.573486,785.437805 510.389801,782.711670 504.282776,779.581055 
	C499.884949,777.326599 498.575958,778.059143 498.095947,782.816406 
	C496.746643,796.189453 495.636688,809.586365 494.365723,822.967590 
	C494.035889,826.440186 495.462433,827.756348 498.906219,827.712463 
	C505.388977,827.629944 511.883606,827.633118 518.356812,827.944031 
	C522.727112,828.153870 524.328247,826.017822 524.629822,822.109741 
	C524.910645,818.470154 525.282837,814.837585 525.650146,810.290527 
M382.751953,394.352509 
	C382.061371,381.577667 381.294098,368.806213 380.727539,356.025879 
	C380.560181,352.250153 379.040955,351.616821 376.044373,353.324158 
	C372.494232,355.346771 369.899078,358.310242 367.733154,361.762848 
	C362.021545,370.867554 361.052307,380.933044 362.528137,391.130432 
	C364.110870,402.065918 369.320862,411.213348 378.775513,417.509186 
	C380.176025,418.441742 381.762817,419.281342 383.448914,418.497253 
	C385.359467,417.608673 384.994293,415.717468 384.833801,414.096283 
	C384.212219,407.816589 383.514038,401.544434 382.751953,394.352509 
M613.260071,413.371063 
	C613.399414,415.112610 612.423157,417.358307 614.520996,418.324890 
	C616.630859,419.297058 618.316406,417.650208 619.849243,416.417572 
	C621.532471,415.064026 623.145508,413.601593 624.651733,412.052917 
	C638.724609,397.583771 640.042358,372.262909 627.453552,357.626862 
	C624.979492,354.750427 622.288208,352.035767 617.979370,352.199921 
	C617.743164,352.895844 617.439880,353.363098 617.448975,353.824188 
	C617.835388,373.508209 615.712952,393.012787 613.260071,413.371063 
M772.494629,364.887146 
	C768.346130,364.917053 764.197632,364.966492 760.049133,364.969849 
	C757.396301,364.972015 756.087952,366.199554 756.095642,368.903259 
	C756.117432,376.536835 756.115234,384.170776 756.065247,391.804169 
	C756.047791,394.466888 757.131531,395.758698 759.912842,395.732300 
	C767.546204,395.659790 775.180847,395.665771 782.814514,395.715515 
	C785.521179,395.733154 786.765503,394.560699 786.746094,391.837769 
	C786.714050,387.357483 786.799194,382.876434 786.817505,378.395660 
	C786.872559,364.905243 786.869263,364.905243 772.494629,364.887146 
M594.437317,647.143555 
	C574.316772,650.270935 554.155151,653.169189 532.735168,657.528687 
	C539.980042,661.062012 545.670166,663.791443 552.525269,662.510742 
	C581.463379,657.104248 610.424500,651.820923 639.369812,646.452942 
	C645.256592,645.361206 651.112122,644.100525 656.981140,642.913391 
	C658.624939,642.580994 660.590637,642.367859 660.418457,640.113037 
	C660.240784,637.785339 658.324768,637.354858 656.370911,637.340881 
	C654.706726,637.328918 653.008606,637.214417 651.382446,637.486267 
	C632.680359,640.612793 613.989136,643.804565 594.437317,647.143555 
M849.531738,406.804352 
	C848.225952,402.166351 846.925354,397.526855 845.611938,392.890991 
	C845.037292,390.862549 844.213928,389.212677 841.626099,389.228546 
	C830.646057,389.295837 819.665588,389.281097 808.685242,389.296906 
	C806.861511,389.299530 805.255188,389.735840 805.166504,391.918671 
	C804.964172,396.892639 804.794189,401.870850 804.773010,406.848022 
	C804.762268,409.372101 805.992065,410.726868 808.809143,410.706177 
	C821.286499,410.614441 833.764893,410.648773 846.242920,410.669159 
	C848.370728,410.672607 849.893921,410.162628 849.531738,406.804352 
M516.279602,670.289612 
	C513.950623,669.608398 511.763336,668.181580 508.811157,668.886292 
	C508.329315,673.308655 508.286499,677.832397 507.277466,682.129272 
	C504.953400,692.025940 507.940796,698.646912 517.864014,701.927429 
	C520.184631,702.694580 522.205566,704.361511 524.374146,705.597351 
	C526.643188,706.890564 529.111023,706.964722 531.644287,706.859741 
	C534.183350,706.754456 535.463318,705.726807 535.922119,703.049622 
	C537.086365,696.256653 536.384033,689.411926 536.869080,682.612732 
	C537.095093,679.444519 535.783325,677.622864 532.894226,676.565369 
	C527.580505,674.620300 522.307739,672.563416 516.279602,670.289612 
M779.354370,501.820496 
	C786.731628,501.684814 786.731506,501.684814 786.729248,494.451935 
	C786.729004,493.622284 786.661743,492.785706 786.744080,491.964203 
	C787.082458,488.584839 785.734924,487.143250 782.204468,487.273132 
	C776.736328,487.474243 771.255066,487.316925 765.779358,487.314606 
	C755.541504,487.310333 755.671021,487.306091 756.072449,497.367706 
	C756.213318,500.897736 757.715820,501.971832 760.972229,501.898102 
	C766.776978,501.766571 772.586426,501.843384 779.354370,501.820496 
M724.578308,396.739746 
	C726.070618,396.816986 727.631653,396.638153 729.043030,397.016998 
	C734.400818,398.455200 736.374207,396.156677 736.106567,391.029968 
	C736.064209,390.219360 736.329407,389.389191 736.477783,388.572693 
	C737.142700,384.913696 735.712952,382.852814 731.939575,382.446594 
	C726.828735,381.896393 721.739563,381.250061 716.576050,381.174164 
	C713.066528,381.122589 711.578979,382.291229 711.191772,385.931396 
	C710.204529,395.213013 710.036560,395.208191 719.190552,396.391266 
	C720.668335,396.582245 722.168518,396.600525 724.578308,396.739746 
M723.401794,496.124359 
	C716.965515,495.520386 710.531250,494.894165 704.092102,494.322693 
	C701.238525,494.069397 700.357544,495.677490 700.303223,498.287109 
	C700.248596,500.912720 701.536987,501.851135 703.937073,501.848969 
	C710.580383,501.842987 717.223694,501.875092 723.866882,501.852264 
	C725.609985,501.846283 727.264526,501.514557 727.583801,499.366760 
	C727.972656,496.751801 726.230164,496.328644 723.401794,496.124359 
z"/>
<path fill="#000000" opacity="1.000000" stroke="none" 
	d="
M539.988220,449.280884 
	C522.066284,446.042999 516.471252,443.628906 500.775909,432.406708 
	C496.002319,436.260315 491.046997,440.241608 485.189575,442.636841 
	C471.305450,448.314362 456.999817,451.563141 441.877289,449.236694 
	C439.571045,448.881866 437.249542,448.418213 435.274719,447.106476 
	C432.147522,445.029358 431.595032,441.129669 434.653748,439.203094 
	C447.461487,431.136047 458.315277,420.201447 472.215790,413.751221 
	C477.265015,411.408234 482.492249,409.920288 488.054749,409.725952 
	C491.498810,409.605591 494.724487,410.529663 497.354553,412.744110 
	C499.596527,414.631775 501.427704,414.985840 503.913361,413.035950 
	C508.745270,409.245514 514.321716,408.973846 520.062378,410.484680 
	C531.600281,413.521118 541.076660,420.357788 550.481201,427.250397 
	C555.176880,430.691864 559.598694,434.495026 564.703125,437.375671 
	C567.085999,438.720428 569.280029,440.572388 568.859314,443.628113 
	C568.438782,446.681427 565.835327,447.821625 563.176575,448.547424 
	C555.660400,450.599457 548.067444,450.717194 539.988220,449.280884 
z"/>
<path fill="#000000" opacity="1.000000" stroke="none" 
	d="
M569.040771,353.356415 
	C566.350769,353.352295 564.402954,352.329468 562.535828,351.269775 
	C555.495728,347.274078 548.180176,346.420380 540.416931,348.811371 
	C537.893738,349.588531 535.252930,350.118744 532.627380,350.392059 
	C529.792725,350.687134 527.811035,349.157898 527.008972,346.446655 
	C526.258057,343.908234 527.181458,341.700165 529.404236,340.423462 
	C540.552368,334.020355 559.971985,331.335114 572.090088,340.504791 
	C574.873535,342.610962 576.935974,345.293060 575.931396,349.043427 
	C575.086670,352.196777 572.687744,353.513397 569.040771,353.356415 
z"/>
<path fill="#000000" opacity="1.000000" stroke="none" 
	d="
M448.055420,334.673706 
	C455.344757,334.293701 461.708374,336.339447 467.985870,338.550781 
	C472.424530,340.114380 474.414124,343.608459 473.027313,346.958008 
	C471.375946,350.946564 467.731689,351.128479 464.553619,349.971741 
	C454.333496,346.251923 444.768097,347.057251 435.247070,352.325928 
	C430.887512,354.738434 426.326599,353.352325 424.791626,349.871033 
	C422.839447,345.443420 425.390869,342.422394 428.703003,340.189941 
	C434.359314,336.377350 440.736359,334.617676 448.055420,334.673706 
z"/>
<path fill="#000000" opacity="1.000000" stroke="none" 
	d="
M559.219604,367.437317 
	C559.623230,371.757507 558.994446,375.484100 557.136047,378.926270 
	C553.245422,386.132538 544.830322,386.837708 540.115295,380.215698 
	C536.140442,374.633270 535.620483,368.508881 538.781067,362.370758 
	C542.699585,354.760681 551.577454,354.210480 556.607483,361.140839 
	C557.887512,362.904419 558.784363,364.850769 559.219604,367.437317 
z"/>
<path fill="#000000" opacity="1.000000" stroke="none" 
	d="
M464.111572,370.788086 
	C463.429230,374.456909 462.868988,377.722778 460.642303,380.401337 
	C457.557526,384.112061 452.929657,385.611511 449.101624,383.681702 
	C443.992737,381.106232 442.016113,376.479034 441.708954,371.032867 
	C441.393585,365.440125 442.506653,360.407928 447.891663,357.395203 
	C453.638641,354.179871 461.084808,357.606873 463.188232,364.512512 
	C463.759491,366.387970 463.840393,368.412781 464.111572,370.788086 
z"/>
</svg>