<?xml version="1.0" encoding="UTF-8"?>
<svg version="1.1" xmlns="http://www.w3.org/2000/svg" width="1024" height="1024">
<defs>
<filter id="hendrik-depth" x="-8%" y="-8%" width="116%" height="116%" color-interpolation-filters="sRGB">
<feDropShadow dx="0" dy="10" stdDeviation="12" flood-color="#000000" flood-opacity="0.18"/>
<feDropShadow dx="0" dy="2" stdDeviation="2" flood-color="#ffffff" flood-opacity="0.25"/>
</filter>
</defs>
<path d="M0 0 C337.92 0 675.84 0 1024 0 C1024 337.92 1024 675.84 1024 1024 C686.08 1024 348.16 1024 0 1024 C0 686.08 0 348.16 0 0 Z " fill="#FDFDFD" transform="translate(0,0)"/>
<g filter="url(#hendrik-depth)">
<path d="M0 0 C3.95324675 0.00314633 7.90573254 -0.02033563 11.85888672 -0.0456543 C34.97574366 -0.1049209 57.57860425 1.99206978 80.23779297 6.56567383 C80.988974 6.71363403 81.74015503 6.86159424 82.51409912 7.01403809 C94.79814001 9.44274077 106.74920445 12.53960217 118.625 16.53881836 C121.06619098 17.34145007 123.52117866 18.07182986 125.98779297 18.79223633 C131.03327972 20.29301572 135.94797579 22.05902521 140.86279297 23.94067383 C142.21473755 24.45791016 142.21473755 24.45791016 143.59399414 24.9855957 C158.77943534 30.87730889 173.55731347 37.76845535 187.98779297 45.31567383 C188.66422852 45.66645996 189.34066406 46.01724609 190.03759766 46.37866211 C216.85169285 60.39710601 242.08300289 78.57259078 264.40576172 98.97973633 C266.50888528 100.88241089 268.63770548 102.7406694 270.78466797 104.59301758 C275.04561812 108.31405793 279.0629538 112.24262997 283.05029297 116.25317383 C283.71867188 116.91768555 284.38705078 117.58219727 285.07568359 118.2668457 C289.03118371 122.23003387 292.79647697 126.30499446 296.45336914 130.54492188 C298.28892513 132.66318561 300.19990153 134.70475364 302.11279297 136.75317383 C342.8447968 181.98022053 371.07151834 240.13185043 385.1730957 298.98486328 C385.75002949 301.34360097 386.35383081 303.69584171 386.97631836 306.04296875 C389.60954504 315.99712642 391.32734507 325.92538195 392.67529297 336.12817383 C392.78207367 336.92257874 392.88885437 337.71698364 392.99887085 338.53546143 C394.5520461 350.14183973 395.86606235 361.59668671 395.98779297 373.31567383 C396.0115712 374.65569475 396.03622447 375.99570029 396.06152344 377.33569336 C396.43641534 398.23559639 395.90425577 418.57984116 392.98779297 439.31567383 C392.77098877 440.94520996 392.77098877 440.94520996 392.54980469 442.60766602 C388.78880167 470.70481588 382.12254046 497.82563644 371.80175781 524.22290039 C370.95003476 526.41275342 370.11944291 528.61001915 369.28857422 530.80786133 C354.33693097 569.80726556 332.72101513 605.2883111 305.98779297 637.31567383 C305.5464502 637.84870117 305.10510742 638.38172852 304.65039062 638.9309082 C299.03906667 645.70461998 293.35278503 652.22805527 286.98779297 658.31567383 C284.22680403 661.01092493 281.63139363 663.72096498 279.17529297 666.69067383 C276.43772166 669.92156383 273.45853234 672.64509353 270.23388672 675.38208008 C267.71675741 677.54900009 265.2954815 679.80445233 262.86279297 682.06567383 C256.51286406 687.84786494 249.80963038 693.10493634 242.98779297 698.31567383 C242.32521484 698.82453125 241.66263672 699.33338867 240.97998047 699.85766602 C232.87427126 706.07178624 224.74061655 712.03210665 215.98779297 717.31567383 C214.94365234 717.96407227 213.89951172 718.6124707 212.82373047 719.28051758 C167.8547572 747.00978639 118.24025134 766.17782843 65.98779297 774.31567383 C64.71403809 774.51467285 63.4402832 774.71367188 62.12792969 774.91870117 C36.14332011 778.86344023 10.21852451 778.99963673 -16.01220703 778.31567383 C-16.759823 778.29633789 -17.50743896 778.27700195 -18.27770996 778.25708008 C-39.16891423 777.67110579 -59.55146074 774.34985009 -80.01220703 770.31567383 C-80.97352539 770.12666504 -81.93484375 769.93765625 -82.92529297 769.74291992 C-155.96867309 754.77548466 -222.35616975 713.73389061 -274.7348938 661.76821899 C-276.15661233 660.3584076 -277.58227491 658.95257704 -279.00805664 657.546875 C-285.11434532 651.4482185 -290.65492475 645.07713841 -296.01220703 638.31567383 C-297.02580868 637.07313511 -298.04116553 635.83202394 -299.05908203 634.59301758 C-359.40521486 560.32589338 -393.0278405 463.40714769 -385.92431641 359.27246094 C-385.7279008 357.50878536 -385.52641199 355.74566731 -385.31982422 353.9831543 C-385.00507038 351.25378886 -384.72990516 348.52222165 -384.45751953 345.78833008 C-378.05134813 285.14703553 -355.60658779 224.49842517 -321.01220703 174.31567383 C-320.53041992 173.61152344 -320.04863281 172.90737305 -319.55224609 172.18188477 C-302.26524483 146.99932405 -282.34670898 122.03687786 -259.08642578 102.11254883 C-256.81062985 100.14104953 -254.60298036 98.10432988 -252.38720703 96.06567383 C-246.18269545 90.48255491 -239.64859131 85.36801258 -233.01220703 80.31567383 C-232.29355469 79.76717773 -231.57490234 79.21868164 -230.83447266 78.65356445 C-209.00872833 62.07349258 -185.74141223 48.1186378 -161.01220703 36.31567383 C-160.27341309 35.96150391 -159.53461914 35.60733398 -158.7734375 35.24243164 C-126.38524401 19.84665936 -92.03155932 10.16273499 -56.76220703 4.12817383 C-55.86566406 3.97324463 -54.96912109 3.81831543 -54.04541016 3.65869141 C-51.0392453 3.16597863 -48.0300822 2.73096354 -45.01220703 2.31567383 C-43.7225 2.13544678 -42.43279297 1.95521973 -41.10400391 1.76953125 C-27.43243215 0.01959324 -13.76604432 -0.02281665 0 0 Z " fill="#1D1D1D" transform="translate(509.01220703125,116.684326171875)"/>
<path d="M0 0 C0.9398172 -0.00067474 1.8796344 -0.00134949 2.84793091 -0.00204468 C28.42445525 0.02692633 53.11800672 3.1607342 78.1875 8.25 C79.04085938 8.42192871 79.89421875 8.59385742 80.7734375 8.77099609 C106.8876439 14.22049307 133.166551 23.78110006 157.1875 35.25 C158.10096191 35.68135254 159.01442383 36.11270508 159.95556641 36.55712891 C190.5627887 51.1039243 218.66559466 69.98687693 244.1875 92.25 C244.80786133 92.78786133 245.42822266 93.32572266 246.06738281 93.87988281 C266.63434463 111.76984329 284.9678226 131.32973305 301.1875 153.25 C301.65269043 153.8785791 302.11788086 154.5071582 302.59716797 155.15478516 C310.87208346 166.42116692 318.25435954 178.11591338 325.1875 190.25 C325.98655762 191.64847168 325.98655762 191.64847168 326.80175781 193.07519531 C351.92542127 237.4259999 367.88991266 286.52624101 373.1875 337.25 C373.27305649 338.04771317 373.35861298 338.84542633 373.44676208 339.66731262 C374.13514826 346.5297019 374.34809037 353.32066478 374.35546875 360.21484375 C374.35879715 361.32823624 374.36212555 362.44162872 374.36555481 363.58876038 C374.37058803 365.93425081 374.37296426 368.27974831 374.37280273 370.62524414 C374.37497488 374.14677281 374.39313034 377.66798026 374.41210938 381.18945312 C374.45534772 398.32640123 373.5748449 415.17770757 370.5 432.0625 C370.33048828 432.99803711 370.16097656 433.93357422 369.98632812 434.89746094 C369.40554671 438.01890809 368.80026574 441.13467836 368.1875 444.25 C367.96497559 445.39839355 367.74245117 446.54678711 367.51318359 447.72998047 C358.88732163 491.33882975 342.55357413 535.54439506 317.1875 572.25 C315.72342779 569.37775927 314.53778484 566.53060912 313.4375 563.5 C308.91696547 552.30551268 301.80475355 546.87354834 291.01733398 541.74194336 C281.47472204 537.70113521 272.1068389 535.59438454 261.90713501 533.89328003 C257.17426571 533.10010473 252.4525884 532.24513826 247.73046875 531.390625 C246.7681987 531.21707993 245.80592865 531.04353485 244.8144989 530.86473083 C220.68418137 526.45880306 196.52003215 520.8380508 173.1875 513.25 C171.91065875 512.84110144 170.6338024 512.43225002 169.35693359 512.0234375 C165.87372665 510.90217005 162.40308858 509.74695987 158.93798828 508.57098389 C157.5906629 508.11644095 156.24095223 507.66889161 154.88867188 507.22930908 C141.99535157 503.01190206 133.63373149 495.94879538 124.30078125 486.3671875 C121.72094384 483.78258144 118.98389862 481.43150317 116.2109375 479.05859375 C113.97846652 477.0631612 111.90194787 474.95693334 109.8125 472.8125 C105.96741768 468.90754615 101.89751894 465.49883801 97.546875 462.171875 C96.76828125 461.53765625 95.9896875 460.9034375 95.1875 460.25 C94.28515625 459.61835937 93.3828125 458.98671875 92.453125 458.3359375 C88.79489858 453.35318083 89.18911813 448.15777951 89.1875 442.125 C89.18459961 440.90482178 89.18169922 439.68464355 89.17871094 438.42749023 C89.38085156 432.22336015 89.61409379 427.3195976 93.9375 422.62353516 C96.22492993 420.62426778 98.65490748 418.9230674 101.1875 417.25 C102.5509597 415.94748966 103.89631511 414.62418963 105.1875 413.25 C105.125625 414.178125 105.06375 415.10625 105 416.0625 C104.9674613 421.33376961 106.66843937 426.24975875 108.1875 431.25 C109.8375 431.25 111.4875 431.25 113.1875 431.25 C113.125625 432.3225 113.06375 433.395 113 434.5 C112.95957787 438.11896403 112.95957787 438.11896403 114.25 440.6875 C117.13788552 443.01643994 119.60326962 442.52050795 123.1875 442.25 C123.50884134 437.42504307 123.50884134 437.42504307 122 432.9375 C119.8776065 430.96147846 117.92943009 430.13927462 115.1875 429.25 C115.36539063 428.37988281 115.36539063 428.37988281 115.546875 427.4921875 C115.95341858 425.02853342 116.23731549 422.74907707 116.1875 420.25 C115.5275 419.3425 114.8675 418.435 114.1875 417.5 C111.41117355 412.98846952 111.8081649 409.64099568 112.390625 404.46875 C113.43705426 400.24199651 115.30132049 398.00087641 118.15625 394.80078125 C125.7362623 385.28203504 129.91100396 372.52439866 134.1875 361.25 C137.4875 360.92 140.7875 360.59 144.1875 360.25 C144.5175 361.24 144.8475 362.23 145.1875 363.25 C145.8475 363.58 146.5075 363.91 147.1875 364.25 C147.05730469 364.84167969 146.92710937 365.43335938 146.79296875 366.04296875 C146.36026088 368.52194 146.0646141 370.73295773 146.1875 373.25 C148.58333651 376.06331378 148.58333651 376.06331378 151.1875 378.25 C151.05915745 380.56016597 150.82144255 381.61605745 149.1875 383.25 C148.81151062 388.23185928 149.13109849 390.39627635 152.1875 394.25 C151.90867131 397.31711564 150.94502863 398.61370706 149.1875 401.25 C148.84792437 405.32490752 148.87417514 406.78001271 151.1875 410.25 C151.1875 411.24 151.1875 412.23 151.1875 413.25 C150.3625 414.013125 149.5375 414.77625 148.6875 415.5625 C145.91160969 418.01929496 145.91160969 418.01929496 145.8125 421.3125 C146.11892807 423.71285319 146.4768361 425.94034231 147.1875 428.25 C146.40375 428.518125 145.62 428.78625 144.8125 429.0625 C141.90635077 430.09814432 141.90635077 430.09814432 140.1875 433.25 C140.2184375 434.4875 140.2184375 434.4875 140.25 435.75 C140.1875 438.25 140.1875 438.25 139 439.8984375 C136.58093606 441.70230845 135.10560285 441.52424963 132.125 441.375 C128.51514113 441.12190234 128.51514113 441.12190234 125.1875 442.25 C124.85324265 444.62374861 124.85324265 444.62374861 125.1875 447.25 C126.66709573 449.29826062 126.66709573 449.29826062 129.1875 450.25 C132.65706742 450.56525218 132.65706742 450.56525218 136.1875 449.25 C137.85697541 447.58899909 139.22317412 445.82749862 140.63671875 443.9453125 C142.36924364 442.05131804 143.5852848 441.52703666 146 440.75 C147.051875 440.255 148.10375 439.76 149.1875 439.25 C150.15053209 435.78308446 150.26173657 433.06660222 149.9375 429.5 C150.02 428.7575 150.1025 428.015 150.1875 427.25 C150.991875 426.79625 151.79625 426.3425 152.625 425.875 C155.5772969 424.41026306 155.5772969 424.41026306 156.125 420.6875 C156.1559375 418.9859375 156.1559375 418.9859375 156.1875 417.25 C155.5275 416.59 154.8675 415.93 154.1875 415.25 C154.1875 413.93 154.1875 412.61 154.1875 411.25 C155.5075 410.92 156.8275 410.59 158.1875 410.25 C158.26892927 408.5007786 158.32688541 406.75045458 158.375 405 C158.40980469 404.02546875 158.44460938 403.0509375 158.48046875 402.046875 C158.14825202 398.87531258 157.30077721 397.57959693 155.1875 395.25 C155.67347656 394.8478125 156.15945313 394.445625 156.66015625 394.03125 C159.02607337 391.27202185 158.65545965 388.85192248 158.55859375 385.34765625 C158.35124481 383.03337652 158.35124481 383.03337652 156.1875 381.1875 C155.5275 380.878125 154.8675 380.56875 154.1875 380.25 C154.3525 379.610625 154.5175 378.97125 154.6875 378.3125 C155.11406206 375.69980739 155.35138883 373.26430731 155.4375 370.625 C155.47617188 369.49191406 155.47617188 369.49191406 155.515625 368.3359375 C155.10073112 365.69839785 154.04505041 365.09816884 152.1875 363.25 C151.5 360.5625 151.5 360.5625 151.1875 358.25 C151.94675781 357.63511719 152.70601562 357.02023437 153.48828125 356.38671875 C154.48214844 355.57847656 155.47601562 354.77023437 156.5 353.9375 C157.48613281 353.13699219 158.47226562 352.33648437 159.48828125 351.51171875 C162.09823848 349.40557856 162.09823848 349.40557856 163.91796875 347.45703125 C165.1875 346.25 165.1875 346.25 167.1875 346.25 C167.58195313 345.38375 167.58195313 345.38375 167.984375 344.5 C169.2508429 342.13154056 170.7107179 340.3034706 172.4375 338.25 C176.59153081 333.01193193 179.44704776 327.32481053 182.1875 321.25 C182.53167969 320.51265625 182.87585938 319.7753125 183.23046875 319.015625 C185.87055003 311.3863289 186.5296333 303.77469816 186.5 295.75 C186.51611328 294.87730469 186.53222656 294.00460937 186.54882812 293.10546875 C186.5542858 285.73760665 185.37569614 278.76674379 181.4375 272.4375 C180.1875 270.25 180.1875 270.25 180.37890625 268.0703125 C181.42003042 264.43895185 183.11366911 261.25714992 184.875 257.9375 C187.77014628 252.31697245 190.35189439 246.67476107 192.5625 240.75 C192.80057373 240.11666748 193.03864746 239.48333496 193.28393555 238.83081055 C195.97353935 231.43318768 197.4574452 224.24588769 198.25 216.4375 C199.06296875 208.62359375 199.06296875 208.62359375 200.1875 205.25 C201.9241381 176.44285775 197.67916652 152.41384164 178.6953125 129.890625 C165.77223841 116.28315135 148.58635043 110.43045722 130.1875 109.25 C129.7853125 108.19425781 129.7853125 108.19425781 129.375 107.1171875 C117.62398764 77.50772873 96.16121736 57.20790432 67.25 44.29296875 C59.58786904 41.06878982 51.58979162 38.82873271 43.53051758 36.83129883 C42.05767936 36.46589008 40.5900066 36.07822331 39.1315918 35.65893555 C31.63397158 33.66376554 23.95037332 33.89629795 16.25 33.9375 C15.51317993 33.93998749 14.77635986 33.94247498 14.01721191 33.94503784 C-30.82038803 34.17951863 -67.98369847 55.51708807 -101.84130859 83.36743164 C-133.4863262 109.38814899 -133.4863262 109.38814899 -150.8125 116.25 C-151.68132812 116.60835938 -152.55015625 116.96671875 -153.4453125 117.3359375 C-159.67072331 119.739809 -167.44488395 120.37253868 -173.8125 118.25 C-177.19972609 117.8541639 -180.43436703 117.74051109 -183.8125 118.25 C-187.29205542 121.47495381 -188.75372321 124.0279895 -188.98046875 128.7421875 C-189.15186455 144.73359948 -187.32237916 158.86572562 -177.8125 172.25 C-177.8125 172.91 -177.8125 173.57 -177.8125 174.25 C-177.1525 174.25 -176.4925 174.25 -175.8125 174.25 C-175.8125 174.91 -175.8125 175.57 -175.8125 176.25 C-185.69305448 175.39268508 -193.23151774 170.51946522 -199.8125 163.1875 C-204.61321121 156.13645541 -205.21833693 150.56214154 -204.8125 142.25 C-207.17447658 141.53870471 -207.17447658 141.53870471 -209.8125 141.25 C-212.37661708 143.40618937 -214.30799813 145.24099627 -215.8125 148.25 C-216.05278556 151.45246134 -215.99770352 154.66452388 -216 157.875 C-216.01224609 158.75285156 -216.02449219 159.63070312 -216.03710938 160.53515625 C-216.07213607 176.25046886 -209.25570957 189.76681264 -198.94140625 201.3515625 C-193.11182532 206.84265163 -185.80960747 210.46645172 -178.8125 214.25 C-178.89371094 215.54808594 -178.97492188 216.84617187 -179.05859375 218.18359375 C-179.69377172 233.30533615 -178.19360159 250.65959689 -170.18847656 263.9453125 C-168.8125 266.25 -168.8125 266.25 -168.97265625 268.30859375 C-169.89931298 270.45067931 -171.0060239 272.33764181 -172.25 274.3125 C-175.18181505 279.50672724 -176.22860737 284.34795014 -176.8125 290.25 C-176.90789062 291.21421875 -177.00328125 292.1784375 -177.1015625 293.171875 C-177.9086776 309.90889335 -171.74550028 327.56068066 -160.75317383 340.11083984 C-158.50965774 342.56612317 -156.17682436 344.91041446 -153.8125 347.25 C-153.22855469 347.85585938 -152.64460937 348.46171875 -152.04296875 349.0859375 C-146.23846904 354.6406233 -137.32048554 359.25061346 -129.53515625 360.9765625 C-126.8125 362.25 -126.8125 362.25 -125.34375 365.6015625 C-124.97748976 367.02042063 -124.63516195 368.44559655 -124.3125 369.875 C-123.90710341 371.42833333 -123.49682357 372.98039922 -123.08203125 374.53125 C-122.77193115 375.71460938 -122.77193115 375.71460938 -122.45556641 376.921875 C-117.56131788 394.64076412 -108.53951031 413.35739261 -95.53515625 426.5625 C-92.99517162 430.52510641 -93.33972368 434.02328875 -93.5 438.625 C-93.50966797 439.45 -93.51933594 440.275 -93.52929688 441.125 C-93.76131283 453.83543949 -93.76131283 453.83543949 -96.7109375 457.8046875 C-97.52820313 458.57039063 -98.34546875 459.33609375 -99.1875 460.125 C-100.095 460.9809375 -101.0025 461.836875 -101.9375 462.71875 C-105.51921922 465.87222018 -109.21936682 468.85268442 -112.94921875 471.828125 C-116.69619106 474.99746038 -120.10106887 478.44014886 -123.53588867 481.93994141 C-126.82773338 485.28821774 -130.17897393 488.47840272 -133.78173828 491.48876953 C-135.13371209 492.66130368 -136.44680662 493.88023951 -137.71630859 495.14160156 C-143.63338982 500.89154947 -149.50267054 503.61142898 -157.25 506.25 C-158.43231201 506.66805908 -159.61462402 507.08611816 -160.83276367 507.5168457 C-164.4829857 508.79210762 -168.14412261 510.02803576 -171.8125 511.25 C-172.90401367 511.61657715 -173.99552734 511.9831543 -175.12011719 512.36083984 C-205.26602906 522.36787744 -236.41488557 528.03549979 -267.54785156 533.9609375 C-294.28250806 538.85942256 -294.28250806 538.85942256 -314.5625 555.91796875 C-316.98893905 560.4447941 -318.41699718 565.32469591 -319.8125 570.25 C-322.74083921 567.52099033 -324.75735827 564.93329593 -326.66015625 561.41796875 C-327.43588989 559.99133911 -327.43588989 559.99133911 -328.22729492 558.53588867 C-328.7710376 557.51342041 -329.31478027 556.49095215 -329.875 555.4375 C-330.44645752 554.36798096 -331.01791504 553.29846191 -331.60668945 552.1965332 C-360.53574024 497.61606782 -376.99251696 438.30908424 -377.0625 376.375 C-377.06383942 375.65876465 -377.06517883 374.9425293 -377.06655884 374.20458984 C-377.05755152 351.56825778 -375.51232505 328.42353357 -370.8125 306.25 C-370.61817383 305.31414062 -370.42384766 304.37828125 -370.22363281 303.4140625 C-358.19957122 246.33122302 -334.28135178 191.98160378 -297.8125 146.25 C-297.09707031 145.33347656 -296.38164062 144.41695312 -295.64453125 143.47265625 C-293.731128 141.0384917 -291.77887081 138.64153207 -289.8125 136.25 C-288.68714844 134.84621094 -288.68714844 134.84621094 -287.5390625 133.4140625 C-280.4398709 124.73727277 -272.59025663 116.81153208 -264.6875 108.875 C-264.11863068 108.30095428 -263.54976135 107.72690857 -262.96365356 107.13546753 C-261.33312365 105.49324586 -259.69536998 103.85863447 -258.0546875 102.2265625 C-257.55620804 101.72412521 -257.05772858 101.22168793 -256.54414368 100.70402527 C-253.0430335 97.25 -253.0430335 97.25 -250.8125 97.25 C-250.8125 96.59 -250.8125 95.93 -250.8125 95.25 C-248.8984375 93.47265625 -248.8984375 93.47265625 -246.1875 91.3125 C-245.17558594 90.50425781 -244.16367187 89.69601563 -243.12109375 88.86328125 C-242.5782373 88.4348291 -242.03538086 88.00637695 -241.47607422 87.56494141 C-239.84313744 86.27421679 -238.21977199 84.97225411 -236.59765625 83.66796875 C-223.27199687 73.01059198 -209.56475264 62.8523841 -194.8125 54.25 C-193.78898438 53.64285156 -192.76546875 53.03570312 -191.7109375 52.41015625 C-188.10456436 50.30572133 -184.47135506 48.26145181 -180.8125 46.25 C-180.00586914 45.80640137 -179.19923828 45.36280273 -178.36816406 44.90576172 C-153.7677082 31.48691787 -127.94197887 20.40994494 -100.8125 13.25 C-99.96864746 13.023125 -99.12479492 12.79625 -98.25537109 12.5625 C-83.22219625 8.54458516 -68.20135354 5.53207408 -52.8125 3.25 C-51.70890137 3.08008545 -51.70890137 3.08008545 -50.58300781 2.90673828 C-33.81357895 0.33152031 -16.93234624 0.01107045 0 0 Z " fill="#FDFDFD" transform="translate(514.8125,131.75)"/>
<path d="M0 0 C1.36366699 0.00749268 1.36366699 0.00749268 2.75488281 0.01513672 C14.8529147 0.32408611 25.22545977 3.98035533 34.8125 11.5 C35.84375 12.221875 36.875 12.94375 37.9375 13.6875 C44.07610161 18.96875502 49.24741885 27.75341203 50.04296875 35.84375 C49.956738 40.17096571 49.56046503 44.22591409 48.8125 48.5 C49.94375 49.83125 49.94375 49.83125 52.875 49.9375 C58.25783842 49.33940684 61.01981961 47.27014961 64.8125 43.5 C68.03816604 39.46271476 70.93428822 35.26122253 73.2421875 30.6328125 C74.88201859 27.63353595 76.13611137 25.64557155 78.8125 23.5 C84.28930899 22.52775135 89.30510219 22.90173445 94.8125 23.5 C95.74191406 23.58636719 96.67132812 23.67273438 97.62890625 23.76171875 C99.36390842 23.95104815 101.09094497 24.21307416 102.8125 24.5 C102.8125 23.84 102.8125 23.18 102.8125 22.5 C95.86181961 19.70919651 89.26741562 18.86580804 81.8125 18.5 C82.12032496 16.85328588 82.43389234 15.20764424 82.75 13.5625 C82.92402344 12.64597656 83.09804688 11.72945313 83.27734375 10.78515625 C83.8125 8.5 83.8125 8.5 84.8125 7.5 C96.44867985 6.62179775 107.27192571 10.31195187 116.34375 17.5078125 C129.70907433 29.06157178 138.21509585 43.17094422 139.9375 60.875 C140.02386719 61.70644531 140.11023438 62.53789062 140.19921875 63.39453125 C140.40968843 65.42907147 140.61193314 67.4644597 140.8125 69.5 C138.06041826 66.84427123 135.66931399 64.11981911 133.375 61.0625 C130.71597914 57.60746653 128.02116438 54.46801455 124.8125 51.5 C124.33683594 51.03078125 123.86117188 50.5615625 123.37109375 50.078125 C112.90331375 40.29138129 98.91641413 35.97573136 84.796875 36.39453125 C84.14203125 36.42933594 83.4871875 36.46414063 82.8125 36.5 C82.8125 37.49 82.8125 38.48 82.8125 39.5 C84.46185547 39.93699219 84.46185547 39.93699219 86.14453125 40.3828125 C104.90307854 45.51404572 118.99449181 53.9127381 128.98828125 71.16015625 C136.65261802 84.90017771 139.69990536 95.71087411 136.4453125 111.44140625 C135.8125 113.5 135.8125 113.5 133.8125 116.5 C133.55597656 115.90574219 133.29945313 115.31148438 133.03515625 114.69921875 C125.09657737 97.51232913 112.16564498 88.57769629 96.00488281 79.9309082 C84.3476999 73.6876852 74.28963894 67.7157084 66.8125 56.5 C65.8225 56.5 64.8325 56.5 63.8125 56.5 C63.20868397 63.98731877 64.38074186 69.3239343 68.8125 75.5 C70.36546706 76.74711956 71.95048882 77.95519923 73.5625 79.125 C76.87415495 81.80716682 77.71903398 83.01717555 78.54296875 87.2734375 C78.74123243 90.02290701 78.74871368 92.7450201 78.71484375 95.5 C78.71292171 103.404399 81.82718593 110.38584824 84.8125 117.5625 C88.44267929 126.32885688 91.14903342 133.86701659 90.9375 143.4375 C90.89625 146.098125 90.855 148.75875 90.8125 151.5 C85.2025 151.83 79.5925 152.16 73.8125 152.5 C73.296875 150.746875 72.78125 148.99375 72.25 147.1875 C68.11399361 134.86655465 60.3469068 124.21775576 49.0234375 117.59375 C35.58069753 110.94363129 21.05031876 109.31030399 6.57421875 113.54296875 C-6.78606844 118.17277124 -16.64929735 126.24220418 -22.875 138.9375 C-28.03113874 149.75929242 -29.40870207 163.52610919 -26.0546875 175.2421875 C-20.14711234 190.62317148 -11.68763667 201.29781189 3.54296875 208.1953125 C15.98294229 213.15941186 30.22067888 213.18972328 42.8125 208.5 C45.80138879 207.01123791 48.67667953 205.43219121 51.53515625 203.70703125 C53.8125 202.5 53.8125 202.5 56.8125 202.5 C56.750625 203.758125 56.68875 205.01625 56.625 206.3125 C56.57617078 209.66958979 56.57617078 209.66958979 58.3125 212.5 C58.8075 212.83 59.3025 213.16 59.8125 213.5 C58.8125 215.5 57.8125 217.5 56.8125 219.5 C56.47911404 222.95812169 56.47911404 222.95812169 56.8125 226.5 C58.31235609 228.16710346 58.31235609 228.16710346 59.8125 229.5 C59.54213853 232.47397616 58.95803974 233.35446026 56.8125 235.5 C56.18662575 240.87118699 56.18662575 240.87118699 58.3125 245.5 C58.8075 245.83 59.3025 246.16 59.8125 246.5 C57.9375 251.25 57.9375 251.25 56.8125 253.5 C56.37106839 257.47288453 56.49219987 259.03956856 58.8125 262.375 C59.4725 263.07625 60.1325 263.7775 60.8125 264.5 C60.1525 265.16 59.4925 265.82 58.8125 266.5 C56.42937096 269.39730041 56.42937096 269.39730041 57.125 273.0625 C57.47049361 281.11400317 49.44888286 287.72041251 44.37890625 293.32421875 C41.41595567 296.55273005 38.40334898 299.73035881 35.36328125 302.88623047 C34.09505772 304.2059656 32.84214462 305.54039864 31.59375 306.87890625 C12.24746285 327.16791501 -16.44103411 344.17069815 -44.81396484 344.91796875 C-61.91659171 345.02936837 -75.28693894 341.81228016 -90.1875 333.5 C-91.79818359 332.62794922 -91.79818359 332.62794922 -93.44140625 331.73828125 C-126.69689069 313.13775605 -147.55683091 283.56928132 -158.1875 247.5 C-163.10837685 229.53677165 -165.44440602 210.9340805 -167.91607666 192.50640869 C-168.17023488 190.62762679 -168.43318689 188.75004039 -168.69677734 186.87255859 C-175.55049054 137.53292589 -175.55049054 137.53292589 -167.42578125 117.8671875 C-166.38909694 115.04819106 -166.00727586 113.39838633 -165.85546875 110.5078125 C-165.59903233 106.40928528 -165.13201161 103.20824097 -163.1875 99.5 C-158.91067514 96.43837399 -153.98006834 94.90895634 -149.01953125 93.30859375 C-144.67158362 91.86986831 -141.69648123 89.76873414 -138.15551758 86.9206543 C-134.92419279 84.5880555 -131.3703962 83.45983978 -127.625 82.1875 C-107.67895117 74.8810211 -92.14487459 61.64886846 -76.80859375 47.26953125 C-69.89749281 41.2009698 -62.92825408 38.93796168 -54.1875 36.5 C-53.02476562 36.1596875 -51.86203125 35.819375 -50.6640625 35.46875 C-26.79445081 28.81744247 -1.44386086 28.60696797 20.55078125 40.85742188 C24.13491845 42.836554 26.68765277 43.97231075 30.8125 43.5 C31.1425 42.51 31.4725 41.52 31.8125 40.5 C26.30251485 30.71392598 14.55723637 25.81982847 4.48046875 22.2265625 C-3.22869891 20.12714056 -10.93305761 20.31668658 -18.875 20.3125 C-20.07833984 20.30025391 -21.28167969 20.28800781 -22.52148438 20.27539062 C-30.28368438 20.26281007 -37.58275603 20.95998778 -45.1875 22.5 C-46.12424561 22.68667236 -47.06099121 22.87334473 -48.02612305 23.06567383 C-48.73937744 23.20900146 -49.45263184 23.3523291 -50.1875 23.5 C-50.1875 22.84 -50.1875 22.18 -50.1875 21.5 C-48.03326096 19.85605588 -45.89023553 18.35302799 -43.625 16.875 C-42.61530151 16.21165649 -42.61530151 16.21165649 -41.58520508 15.53491211 C-28.53171857 7.08996622 -15.93975721 -0.11663237 0 0 Z " fill="#FCFCFC" transform="translate(560.1875,248.5)"/>
<path d="M0 0 C1.6520897 1.40936562 3.29792736 2.82609222 4.9375 4.25 C5.9275 5.04148438 6.9175 5.83296875 7.9375 6.6484375 C17.47142718 14.91613998 26.75152515 28.53402437 28.9375 41.25 C29.00298492 42.83211573 29.02328381 44.41670081 29 46 C28.98646484 47.19882813 28.98646484 47.19882813 28.97265625 48.421875 C28.96105469 49.02515625 28.94945312 49.6284375 28.9375 50.25 C28.2775 50.25 27.6175 50.25 26.9375 50.25 C25.74609375 48.4140625 25.74609375 48.4140625 24.375 45.875 C14.65402189 29.41877276 -0.93815928 19.44889963 -19.0625 14.25 C-19.0625 14.91 -19.0625 15.57 -19.0625 16.25 C-18.00095703 16.65025391 -18.00095703 16.65025391 -16.91796875 17.05859375 C-0.84363646 23.7653945 11.78321861 35.52573691 18.9375 51.4375 C20.81654273 56.31920222 21.70678892 60.05729979 20.9375 65.25 C19.4525 66.24 19.4525 66.24 17.9375 67.25 C17.60878906 66.57195312 17.28007813 65.89390625 16.94140625 65.1953125 C9.2146897 50.07691319 -2.25417997 40.26906746 -18.0625 34.25 C-19.30966797 33.76853516 -19.30966797 33.76853516 -20.58203125 33.27734375 C-36.31003331 28.32636214 -55.06371317 29.63846358 -70.0625 36.25 C-70.73748535 36.54471191 -71.4124707 36.83942383 -72.10791016 37.14306641 C-91.31157182 45.73312023 -106.646695 59.56669247 -121.27563477 74.42895508 C-124.78253395 77.99009243 -128.34212402 81.40323602 -132.16796875 84.625 C-133.55757988 85.81691388 -134.90961314 87.0530085 -136.23828125 88.3125 C-154.04179573 105.09617322 -178.77105172 119.09583336 -203.80859375 118.48828125 C-221.31983824 117.20594522 -235.78951485 110.86188414 -248.0625 98.25 C-249.01125 97.3425 -249.96 96.435 -250.9375 95.5 C-257.0625 89.01470588 -257.0625 89.01470588 -257.0625 86.25 C-251.32075385 88.11940572 -251.32075385 88.11940572 -249 89.29296875 C-233.60879941 94.30738916 -216.23413989 89.38535815 -202.28100586 82.54614258 C-189.66207512 76.0338239 -179.24997726 66.65785054 -168.63671875 57.359375 C-163.87787458 53.19966133 -158.98113694 49.21835933 -154.0625 45.25 C-153.28003906 44.59773438 -152.49757813 43.94546875 -151.69140625 43.2734375 C-136.69631168 30.91294904 -120.10368541 21.41289742 -101.6796875 15.1015625 C-99.69248379 14.29342054 -99.69248379 14.29342054 -99.0625 11.25 C-120.58072751 14.41975088 -139.40044365 22.5372012 -157.0625 35.25 C-158.0009375 35.92546875 -158.939375 36.6009375 -159.90625 37.296875 C-165.70856629 41.57062409 -171.30368689 46.05747286 -176.875 50.625 C-214.69681717 81.51079191 -214.69681717 81.51079191 -237.21875 80.5625 C-246.01249226 79.5961547 -252.81984386 76.64522614 -259.0625 70.25 C-261.93544091 66.16903002 -263.69817828 62.33542626 -263.0625 57.25 C-262.32 57.415 -261.5775 57.58 -260.8125 57.75 C-236.58672392 60.98010348 -216.20659627 49.62272318 -197.5625 35.4375 C-194.109171 32.74005447 -190.71642903 29.97067049 -187.33203125 27.1875 C-174.20296797 16.39583883 -160.70197146 5.93649137 -146.0625 -2.75 C-145.47291504 -3.1001416 -144.88333008 -3.4502832 -144.27587891 -3.81103516 C-98.73808293 -30.65785936 -42.89728496 -34.75661581 0 0 Z " fill="#FBFBFB" transform="translate(602.0625,204.75)"/>
<path d="M0 0 C4.50793138 3.75730067 8.7367087 7.65613785 12.8125 11.875 C16.33358552 15.49675083 19.75979714 18.6286798 23.9375 21.5 C31.99687482 27.74117986 36.8000576 37.41036085 42 46 C42.49757813 46.81581543 42.99515625 47.63163086 43.5078125 48.47216797 C45.9605392 52.4996567 48.38502561 56.54252388 50.78515625 60.6015625 C52.8442082 64.07904328 54.9345549 67.53510343 57.05352783 70.97642517 C58.11526818 72.70147249 59.17272028 74.42907765 60.22900391 76.1574707 C61.59981017 78.39776071 62.97819919 80.6334315 64.36474609 82.86401367 C64.9830127 83.87955322 65.6012793 84.89509277 66.23828125 85.94140625 C67.074198 87.29794312 67.074198 87.29794312 67.92700195 88.68188477 C69 91 69 91 68 94 C66.41210938 95.34350586 66.41210938 95.34350586 64.34375 96.71484375 C63.57635498 97.23046875 62.80895996 97.74609375 62.01831055 98.27734375 C60.77174683 99.09912109 60.77174683 99.09912109 59.5 99.9375 C57.76621643 101.10180704 56.0331589 102.26719587 54.30078125 103.43359375 C52.97747803 104.32087158 52.97747803 104.32087158 51.62744141 105.22607422 C47.61349007 107.93610678 43.645961 110.70976128 39.6875 113.5 C39.00171875 113.97945068 38.3159375 114.45890137 37.609375 114.95288086 C29.71499617 120.00260654 29.71499617 120.00260654 24.875 127.5 C25.03420082 131.95762282 25.88748433 132.8310641 29 136 C32.05462858 138.08170636 35.25971243 139.85025618 38.5 141.625 C39.41676514 142.13772461 40.33353027 142.65044922 41.27807617 143.17871094 C44.17924765 144.79716273 47.08875199 146.3997552 50 148 C51.94416211 149.07524661 53.88817505 150.15076297 55.83203125 151.2265625 C60.54741338 153.83108467 65.27048324 156.42124155 70 159 C64.49632379 184.8204384 40.61589146 213.87310373 25.67797852 235.47314453 C23.9767311 237.95963632 23.9767311 237.95963632 22.60131836 240.53857422 C19.98768797 245.13285004 17.96017262 247.45217029 12.90234375 249.234375 C10.92352925 249.77547663 8.9341971 250.27915133 6.9375 250.75 C5.88199951 251.02674561 4.82649902 251.30349121 3.73901367 251.58862305 C0.50035331 252.42743196 -2.74758465 253.21645906 -6 254 C-7.93015078 254.48906063 -9.85986198 254.97986047 -11.7890625 255.47265625 C-21.12992835 257.81619197 -30.43512758 259.81104554 -40 261 C-38.69847306 254.36401896 -37.31362854 247.74828503 -35.89477539 241.13647461 C-34.44234678 234.35407183 -33.01172299 227.56709861 -31.58447266 220.77935791 C-31.18221067 218.86647111 -30.77951662 216.95367513 -30.37646484 215.04095459 C-19.51254585 163.44856243 -10.80490582 111.74696812 -4.44897461 59.40722656 C-4.02237958 56.16983656 -3.50215745 52.96583403 -2.9375 49.75 C-0.98296552 38.33810188 -0.75541578 26.79877744 -0.4375 15.25 C-0.3941755 13.7630122 -0.35055752 12.27603292 -0.30664062 10.7890625 C-0.20105331 7.19279995 -0.0994039 3.59643942 0 0 Z " fill="#FCFCFC" transform="translate(614,614)"/>
<path d="M0 0 C0.02578125 1.03769531 0.0515625 2.07539062 0.078125 3.14453125 C0.59117328 18.35420427 2.42581273 33.39259632 4.23266602 48.48907471 C4.91816294 54.2374157 5.54122421 59.99105769 6.14770508 65.74829102 C7.5026424 78.49484272 9.26511521 91.13534477 11.32080078 103.78662109 C11.82356547 106.88964683 12.31438612 109.99438795 12.80029297 113.10009766 C19.64264989 156.82703484 27.4822005 200.50629005 37.85595703 243.55175781 C38.13165527 244.70256836 38.40735352 245.85337891 38.69140625 247.0390625 C38.94220947 248.06467285 39.1930127 249.0902832 39.45141602 250.14697266 C39.97088422 252.84857723 40.10540599 255.25818564 40 258 C33.97820386 258.26360804 28.55758244 257.30070237 22.6875 256 C21.70289795 255.78287354 20.7182959 255.56574707 19.70385742 255.34204102 C11.65274505 253.50057995 3.72191674 251.31126787 -4.1875 248.9375 C-5.30358643 248.60943359 -6.41967285 248.28136719 -7.56958008 247.94335938 C-9.13421997 247.45899414 -9.13421997 247.45899414 -10.73046875 246.96484375 C-12.11335083 246.54126587 -12.11335083 246.54126587 -13.52416992 246.10913086 C-18.36096607 243.94232631 -20.83053655 239.99429967 -23.65234375 235.66015625 C-24.33981689 234.60787842 -25.02729004 233.55560059 -25.7355957 232.47143555 C-26.4699404 231.33536704 -27.20389948 230.19904919 -27.9375 229.0625 C-28.70067454 227.88641592 -29.46394058 226.71039121 -30.22729492 225.53442383 C-40.88372852 209.08311915 -51.11877339 192.42883124 -60.69140625 175.32080078 C-61.89899325 173.17913623 -63.13173479 171.05467633 -64.375 168.93359375 C-65.04228467 167.76858292 -65.70900377 166.60324786 -66.375 165.4375 C-66.93960937 164.46683594 -67.50421875 163.49617187 -68.0859375 162.49609375 C-69 160 -69 160 -68.64453125 157.9375 C-66.08758446 154.92504012 -62.76150028 153.36427727 -59.3125 151.5625 C-57.69347635 150.68848858 -56.07501579 149.81343353 -54.45703125 148.9375 C-53.5851416 148.46957031 -52.71325195 148.00164062 -51.81494141 147.51953125 C-46.68276399 144.7491347 -41.58968832 141.90999263 -36.5 139.0625 C-34.98660034 138.22924194 -34.98660034 138.22924194 -33.44262695 137.37915039 C-32.50249756 136.85313232 -31.56236816 136.32711426 -30.59375 135.78515625 C-29.75521484 135.31988525 -28.91667969 134.85461426 -28.05273438 134.37524414 C-25.72918807 133.0081731 -25.72918807 133.0081731 -24 130 C-23.77041734 126.61365581 -23.75278724 125.04628957 -25 122 C-27.87602448 118.75243169 -31.43174777 116.42348214 -35 114 C-35.70108887 113.51869629 -36.40217773 113.03739258 -37.12451172 112.54150391 C-40.34126469 110.33419509 -43.56162491 108.13257767 -46.79370117 105.94775391 C-53.75127063 101.23124838 -60.42191777 96.23176019 -67 91 C-66.41374472 87.0859354 -65.23570563 84.29259826 -63.2265625 80.89453125 C-62.65470215 79.92016113 -62.0828418 78.94579102 -61.49365234 77.94189453 C-60.87699707 76.90919434 -60.2603418 75.87649414 -59.625 74.8125 C-58.99158691 73.74112793 -58.35817383 72.66975586 -57.70556641 71.56591797 C-55.81245261 68.37197341 -53.90806068 65.18503284 -52 62 C-51.49017578 61.14486816 -50.98035156 60.28973633 -50.45507812 59.40869141 C-45.3929445 50.93260151 -40.15776225 42.57252192 -34.75 34.3125 C-34.27868652 33.5817627 -33.80737305 32.85102539 -33.32177734 32.09814453 C-29.12057362 25.76629894 -24.07438543 20.61256031 -18.25 15.75 C-14.17902957 12.25375481 -10.42414073 8.48321263 -6.68066406 4.64355469 C-2.12219212 0 -2.12219212 0 0 0 Z " fill="#FCFCFC" transform="translate(410,616)"/>
<path d="M0 0 C0.98492432 0.46559326 1.96984863 0.93118652 2.98461914 1.41088867 C3.91733643 1.81267334 4.85005371 2.21445801 5.81103516 2.62841797 C6.77710693 3.07612549 7.74317871 3.52383301 8.73852539 3.98510742 C22.57666693 10.31928812 36.32431205 16.23339239 50.98461914 20.41088867 C51.7396875 20.62712891 52.49475586 20.84336914 53.27270508 21.06616211 C65.73633103 24.5128529 78.09587584 25.20037132 90.98461914 25.41088867 C93.44999879 40.76040989 93.44999879 40.76040989 90.10571289 46.80932617 C87.54767444 49.59778335 84.916377 52.02127665 81.98461914 54.41088867 C81.3155957 55.01545898 80.64657227 55.6200293 79.95727539 56.24291992 C78.71392068 57.36535641 77.4501465 58.46553568 76.16821289 59.54370117 C73.43260067 61.88291877 70.80823164 64.33627379 68.17211914 66.78588867 C62.63426511 71.90871338 56.88467292 76.70710564 50.98461914 81.41088867 C49.04282628 78.49819937 48.69584038 77.61016272 48.38696289 74.32104492 C48.30768555 73.53665039 48.2284082 72.75225586 48.14672852 71.9440918 C48.07260742 71.12875977 47.99848633 70.31342773 47.92211914 69.47338867 C47.76704678 67.85986718 47.60957489 66.24657412 47.44946289 64.63354492 C47.35072876 63.56245483 47.35072876 63.56245483 47.25 62.46972656 C46.98204645 60.39092963 46.53293316 58.43217483 45.98461914 56.41088867 C44.99461914 56.41088867 44.00461914 56.41088867 42.98461914 56.41088867 C42.84362793 57.28825684 42.70263672 58.165625 42.55737305 59.06958008 C42.02831541 62.34661766 41.49477612 65.62286154 40.95825195 68.89868164 C40.72762961 70.31245473 40.49876008 71.72651498 40.27172852 73.14086914 C39.94373605 75.18219069 39.60930386 77.22237189 39.27368164 79.26245117 C39.07468262 80.48786621 38.87568359 81.71328125 38.6706543 82.97583008 C36.97477164 91.46731372 36.97477164 91.46731372 34.07470703 94.23095703 C32.90282837 94.98324585 32.90282837 94.98324585 31.70727539 95.75073242 C30.81524414 96.33121338 29.92321289 96.91169434 29.00415039 97.50976562 C28.02833008 98.11651123 27.05250977 98.72325684 26.04711914 99.34838867 C25.02875977 99.99445068 24.01040039 100.6405127 22.96118164 101.30615234 C-26.6920436 132.41088867 -26.6920436 132.41088867 -39.01538086 132.41088867 C-37.55579261 128.24722113 -35.39922588 124.87176568 -32.89038086 121.28588867 C-22.28807621 105.7544248 -12.90726517 89.18948496 -3.85522461 72.71557617 C-2.66137022 70.57120077 -1.42625116 68.44909447 -0.14428711 66.35620117 C2.88018143 61.31309197 5.26941433 56.79357855 4.703125 50.76831055 C3.7983177 47.79963257 2.85689811 47.18354933 0.24633789 45.56323242 C-0.56859131 45.05671143 -1.38352051 44.55019043 -2.22314453 44.02832031 C-7.46506533 40.99188372 -12.78601988 38.11840045 -18.14038086 35.28588867 C-20.41423586 34.07573533 -22.68768512 32.86481924 -24.96069336 31.65307617 C-26.01160156 31.09330078 -27.06250977 30.53352539 -28.14526367 29.95678711 C-31.4711147 28.16542196 -34.75153077 26.31243612 -38.01538086 24.41088867 C-34.73092276 20.96639466 -31.46228765 18.17587431 -27.48803711 15.56323242 C-25.92859375 14.53166016 -25.92859375 14.53166016 -24.33764648 13.47924805 C-23.26192383 12.77606445 -22.18620117 12.07288086 -21.07788086 11.34838867 C-20.00602539 10.64133789 -18.93416992 9.93428711 -17.82983398 9.20581055 C-15.82842305 7.88599467 -13.82543332 6.56856734 -11.8203125 5.25439453 C-8.92500156 3.41031139 -8.92500156 3.41031139 -6.03662109 1.05371094 C-3.01538086 -0.58911133 -3.01538086 -0.58911133 0 0 Z " fill="#FBFBFC" transform="translate(695.015380859375,718.589111328125)"/>
<path d="M0 0 C2.58316855 1.48821352 4.94414238 2.99820577 7.3046875 4.8203125 C13.49420376 9.48176511 19.89110604 13.80658683 26.33081055 18.11450195 C27.12914307 18.65421631 27.92747559 19.19393066 28.75 19.75 C29.83112061 20.47485596 29.83112061 20.47485596 30.93408203 21.21435547 C32.6171875 22.5078125 32.6171875 22.5078125 33.6171875 24.5078125 C32.93841553 24.85448975 32.25964355 25.20116699 31.56030273 25.55834961 C15.4201168 33.76136983 15.4201168 33.76136983 -0.3203125 42.6953125 C-0.92109619 43.05681396 -1.52187988 43.41831543 -2.14086914 43.79077148 C-4.46913057 45.22091514 -6.44285346 46.56785346 -8.3828125 48.5078125 C-9.6586303 55.96412086 -7.5667198 61.49654498 -3.9453125 67.8828125 C-3.46521729 68.76348389 -2.98512207 69.64415527 -2.49047852 70.55151367 C4.45817523 83.11100254 12.06086427 95.30831 19.6171875 107.5078125 C20.66292209 109.2056296 21.70851449 110.90353429 22.75390625 112.6015625 C23.62414709 114.00834047 24.49515675 115.41464335 25.3671875 116.8203125 C25.73658447 117.41690674 26.10598145 118.01350098 26.48657227 118.62817383 C29.04257059 122.70911479 31.79223633 126.61115783 34.6171875 130.5078125 C34.2871875 131.1678125 33.9571875 131.8278125 33.6171875 132.5078125 C11.76964372 122.72075213 -9.22751116 112.18306358 -29.19287109 98.90771484 C-31.38937511 97.46295015 -31.38937511 97.46295015 -33.82666016 96.20556641 C-38.44324905 93.59959281 -40.819491 91.64721406 -42.30859375 86.45703125 C-42.70920029 84.4821113 -43.06514343 82.49775742 -43.3828125 80.5078125 C-43.57665527 79.44256348 -43.77049805 78.37731445 -43.97021484 77.27978516 C-44.55064164 73.96564091 -45.06940695 70.64733889 -45.5703125 67.3203125 C-45.74755859 66.17755859 -45.92480469 65.03480469 -46.10742188 63.85742188 C-46.53816856 61.07503115 -46.96319592 58.29189958 -47.3828125 55.5078125 C-48.3728125 55.8378125 -49.3628125 56.1678125 -50.3828125 56.5078125 C-51.3728125 64.0978125 -52.3628125 71.6878125 -53.3828125 79.5078125 C-57.91419582 77.69525917 -59.77839541 76.52746732 -63.1953125 73.3203125 C-66.12347033 70.59277886 -69.06577836 67.89509138 -72.08203125 65.265625 C-72.76612061 64.66693604 -73.45020996 64.06824707 -74.1550293 63.45141602 C-75.6997242 62.10376494 -77.24975188 60.76221141 -78.80395508 59.42553711 C-95.50463279 44.85720556 -95.50463279 44.85720556 -96.61328125 37.7109375 C-96.76456066 33.8444878 -96.26913722 30.26562198 -95.3828125 26.5078125 C-94.71975098 26.43788086 -94.05668945 26.36794922 -93.37353516 26.29589844 C-63.85402182 23.12416976 -37.83128582 16.31397451 -11.17333984 2.78686523 C-4.21483696 -0.61324418 -4.21483696 -0.61324418 0 0 Z " fill="#FBFBFB" transform="translate(334.3828125,718.4921875)"/>
<path d="M0 0 C3.09075511 0.74811564 5.34691078 2.33222472 8.0234375 4.03515625 C12.72435917 6.90014583 16.15916297 8.62010734 21.70703125 8.24609375 C25.86298794 7.06608733 29.08487087 4.56069012 32.59375 2.10546875 C36.50431781 -0.24087194 38.76325879 -0.25907209 43.2109375 0.53515625 C45.2109375 1.72265625 45.2109375 1.72265625 46.2109375 3.53515625 C46.3984375 6.22265625 46.3984375 6.22265625 46.2109375 8.53515625 C47.603125 8.65890625 47.603125 8.65890625 49.0234375 8.78515625 C61.36614335 10.65149282 70.26859889 16.72166567 78.2109375 26.16015625 C82.63448858 31.28684724 87.7454918 35.89723544 94.671875 36.88671875 C98.03435404 36.7414954 100.28768908 36.32250596 102.8828125 34.109375 C104.45609508 32.32451897 104.45609508 32.32451897 106.2109375 29.53515625 C107.8609375 29.86515625 109.5109375 30.19515625 111.2109375 30.53515625 C111.72265061 37.47171173 111.41749691 42.81518878 107.2109375 48.53515625 C98.99683085 57.81226493 87.45985517 61.82174111 75.375 62.75390625 C65.44826663 63.06655927 56.31520242 61.24240654 47.4609375 56.72265625 C42.77756242 54.42553963 39.94376331 54.30083367 34.98828125 55.82421875 C33.15027537 56.53088503 33.15027537 56.53088503 31.2109375 57.53515625 C27.8625996 57.77690617 24.50452643 57.7203654 21.1484375 57.72265625 C20.23126953 57.73490234 19.31410156 57.74714844 18.36914062 57.75976562 C11.29402785 57.77480839 5.0020487 56.74508536 -1.7265625 54.59765625 C-5.16180344 54.52754929 -6.31858544 55.1767516 -9.2890625 56.78515625 C-21.03073311 63.09542534 -35.61185072 64.4646873 -48.5390625 61.41015625 C-58.35413738 58.29700475 -65.71877366 52.85604826 -71.7890625 44.53515625 C-72.79403102 41.52025068 -72.89241553 39.49333933 -72.8515625 36.34765625 C-72.84253906 35.44660156 -72.83351563 34.54554688 -72.82421875 33.6171875 C-72.81261719 32.93011719 -72.80101562 32.24304688 -72.7890625 31.53515625 C-71.4690625 30.87515625 -70.1490625 30.21515625 -68.7890625 29.53515625 C-68.3765625 30.04046875 -67.9640625 30.54578125 -67.5390625 31.06640625 C-64.35497213 34.64850792 -62.69681357 36.37666003 -57.8515625 37.22265625 C-49.13603428 36.35183259 -43.4963142 30.71177257 -37.7890625 24.59765625 C-31.54407693 17.94406322 -25.49603717 12.18251298 -16.4765625 9.72265625 C-15.65542969 9.48933594 -14.83429688 9.25601562 -13.98828125 9.015625 C-11.7890625 8.53515625 -11.7890625 8.53515625 -8.7890625 8.53515625 C-8.6859375 7.58640625 -8.5828125 6.63765625 -8.4765625 5.66015625 C-7.43429895 0.92259467 -4.63880726 -0.06850559 0 0 Z " fill="#1C1C1C" transform="translate(492.7890625,470.46484375)"/>
<path d="M0 0 C0.66 0 1.32 0 2 0 C2.66 8.58 3.32 17.16 4 26 C5.32 26 6.64 26 8 26 C9.485 13.625 9.485 13.625 11 1 C16.44207709 2.36051927 17.27399286 4.62540691 20.078125 9.29296875 C31.29253936 30.08108489 36.41603699 54.35443397 39.9375 77.5 C40.04540863 78.20241821 40.15331726 78.90483643 40.26449585 79.62854004 C43.41405785 100.46255175 43.41405785 100.46255175 40.59375 105.5234375 C39.9028125 106.13445312 39.211875 106.74546875 38.5 107.375 C37.68402344 108.10332031 36.86804688 108.83164062 36.02734375 109.58203125 C31.07146213 113.54034186 26.02619396 117.36466934 20.91015625 121.11328125 C16.15633119 124.59988128 11.56468427 128.26924843 7 132 C5.68677212 131.02180976 4.37443848 130.0424189 3.0625 129.0625 C2.33160156 128.51722656 1.60070312 127.97195313 0.84765625 127.41015625 C-1 126 -1 126 -2 125 C-2.18806106 122.01788891 -2.32785361 119.04763005 -2.4375 116.0625 C-2.73528935 109.17990003 -3.34939812 102.71244763 -5 96 C-5.66 96 -6.32 96 -7 96 C-7.33 103.92 -7.66 111.84 -8 120 C-13.29809125 117.35095437 -17.47268993 113.78546906 -22 110 C-22.72832031 109.44054687 -23.45664062 108.88109375 -24.20703125 108.3046875 C-26.86031934 106.0674955 -28.78978957 104.30847333 -29.35546875 100.78735352 C-29.21510078 92.51122625 -28.14751803 84.41518757 -26.875 76.25 C-26.76395935 75.5272287 -26.6529187 74.8044574 -26.53851318 74.05978394 C-22.90133516 50.60544368 -17.64983077 17.64983077 0 0 Z " fill="#FBFBFB" transform="translate(506,693)"/>
<path d="M0 0 C4.34171619 4.23018586 7.3551039 8.9150629 10.0625 14.3125 C10.4028125 14.96992188 10.743125 15.62734375 11.09375 16.3046875 C14.69752542 24.34644562 13.92189877 33.70479243 11.09375 41.875 C6.4609056 52.82535949 -0.2072831 60.54238622 -11.25 65.25 C-21.75260915 69.30002575 -31.4324324 69.60580287 -42.11328125 65.640625 C-46.65853796 63.50315988 -50.28394241 60.73316149 -53.9375 57.3125 C-54.50210938 56.78914063 -55.06671875 56.26578125 -55.6484375 55.7265625 C-63.28785117 47.77691884 -66.32222101 36.526576 -66.21484375 25.80078125 C-65.35792544 15.02292142 -59.89970809 6.89926229 -52.25 -0.375 C-37.16525631 -13.00341569 -15.12270103 -12.53458776 0 0 Z " fill="#FBFBFC" transform="translate(609.9375,380.6875)"/>
<path d="M0 0 C1.69753314 3.39506629 0.1787586 7.07285223 -0.5546875 10.66796875 C-0.73153076 11.5587764 -0.90837402 12.44958405 -1.09057617 13.36738586 C-1.67767817 16.30902997 -2.27573472 19.24831133 -2.875 22.1875 C-3.07708069 23.18942383 -3.27916138 24.19134766 -3.48736572 25.22363281 C-7.32330491 44.23263232 -11.5722588 63.13475168 -16.05761719 82 C-16.68414794 84.64233229 -17.29396598 87.28760626 -17.88769531 89.9375 C-18.15420898 91.1234375 -18.42072266 92.309375 -18.6953125 93.53125 C-18.92492676 94.56830078 -19.15454102 95.60535156 -19.39111328 96.67382812 C-20 99 -20 99 -21 100 C-31.96037001 102.11671355 -42.8205917 102.25120673 -53.9375 102.125 C-55.50715564 102.1149329 -57.07681765 102.10581375 -58.64648438 102.09765625 C-62.43115191 102.07597755 -66.21550189 102.04166185 -70 102 C-70.66 98.7 -71.32 95.4 -72 92 C-71.34 92.33 -70.68 92.66 -70 93 C-65.16907147 94.61030951 -60.94493934 94.77797574 -56.1875 92.875 C-53.33320149 90.42845842 -52.21266721 88.57063124 -51 85 C-50.7855618 80.6254607 -51.5185143 77.72999445 -53.9375 74.0625 C-56.81730249 71.18269751 -58.41347722 70.84540301 -62.375 70.8125 C-63.53128906 70.79123047 -63.53128906 70.79123047 -64.7109375 70.76953125 C-67.21834888 71.02198393 -68.83261902 71.74806533 -71 73 C-70.09096771 65.87755647 -64.94587162 61.48330684 -59.64599609 57.015625 C-57.19263944 55.12713053 -54.70360179 53.30394311 -52.1875 51.5 C-50.40897236 50.19431943 -48.63161828 48.88703873 -46.85546875 47.578125 C-46.01290527 46.96001953 -45.1703418 46.34191406 -44.30224609 45.70507812 C-26.80651562 32.74747668 -12.34301607 17.88320073 0 0 Z " fill="#FBFBFB" transform="translate(581,777)"/>
<path d="M0 0 C4.84081977 3.15549733 9.56573646 6.40524874 14.1875 9.875 C32.74573448 23.40005545 52.98030366 31.6378566 76.1875 31.4375 C77.45835449 31.42775146 78.72920898 31.41800293 80.03857422 31.40795898 C107.80810761 30.8871699 131.29855275 18.57984226 152.53125 1.14453125 C154 0 154 0 155 0 C155.13548815 2.73083902 155.23429855 5.45491807 155.3125 8.1875 C155.3753418 9.34088867 155.3753418 9.34088867 155.43945312 10.51757812 C155.52998883 14.73654197 155.46316011 16.42720679 152.72265625 19.81640625 C151.82417969 20.53699219 150.92570313 21.25757813 150 22 C149.36320313 22.63421875 148.72640625 23.2684375 148.0703125 23.921875 C132.14423849 38.88854696 111.66767322 45.3963582 91.11621094 51.33911133 C88.97475785 51.94584911 88.97475785 51.94584911 87 53 C63.31382618 56.59496396 33.84965165 44.26871574 14.796875 30.72265625 C12.0696063 28.58969878 9.53296541 26.35783626 7 24 C6.26652344 23.4121875 5.53304688 22.824375 4.77734375 22.21875 C1.30376422 19.06973953 -0.12050072 16.61164634 -0.421875 11.94140625 C-0.50551769 7.94116161 -0.30490789 3.9880016 0 0 Z " fill="#FAFAFA" transform="translate(435,575)"/>
<path d="M0 0 C3.02445184 2.84115173 5.62453437 5.74862988 8.125 9.0625 C19.27849432 23.58127278 32.70510167 35.89794524 47.36523438 46.78564453 C49.0769418 48.0571548 50.78128529 49.33806778 52.484375 50.62109375 C55.31782103 52.75424757 58.15714997 54.87938754 61 57 C60.39003007 59.85491078 59.49240853 62.08893581 58.0625 64.625 C52.1911315 76.28202358 53.73246277 88.76012695 57 101 C45.12216874 101.21705681 33.73158438 100.99081432 22 99 C20.24986777 94.98281479 19.18152108 90.92567813 18.23046875 86.6640625 C18.06926544 85.95670959 17.90806213 85.24935669 17.74197388 84.52056885 C17.21961655 82.22297432 16.70333209 79.92406754 16.1875 77.625 C15.82662628 76.02876104 15.46554086 74.43256993 15.10424805 72.83642578 C14.06255803 68.22582819 13.02980896 63.61326397 12 59 C11.74250977 57.84822266 11.48501953 56.69644531 11.21972656 55.50976562 C8.55425805 43.54001461 6.06810428 31.5391418 3.69848633 19.50732422 C2.80154437 14.95787893 1.88270495 10.42044127 0.85546875 5.8984375 C0 2 0 2 0 0 Z " fill="#FBFBFB" transform="translate(443,778)"/>
<path d="M0 0 C-12.71770145 12.66054324 -28.09943744 22.76614972 -44 31 C-44.69496582 31.3604541 -45.38993164 31.7209082 -46.10595703 32.09228516 C-65.73621342 42.12761771 -88.72140736 51.24312019 -111 52 C-112.47919922 52.05994141 -112.47919922 52.05994141 -113.98828125 52.12109375 C-123.50065127 52.32657061 -133.6878575 51.91121563 -141 45 C-141.85546875 43.05078125 -141.85546875 43.05078125 -142 41 C-139.3647329 35.44356418 -134.05186152 32.46461697 -128.59765625 30.19140625 C-121.37603381 27.7998809 -113.94832297 26.17642162 -106.5222168 24.55273438 C-104.8317064 24.18226535 -103.14304557 23.80325991 -101.45629883 23.41601562 C-100.26170044 23.14241211 -100.26170044 23.14241211 -99.04296875 22.86328125 C-97.98372192 22.61831909 -97.98372192 22.61831909 -96.90307617 22.3684082 C-94.57599088 21.91791793 -92.36285687 21.84755762 -90 22 C-90 22.66 -90 23.32 -90 24 C-94.58154261 26.39542583 -99.0276578 28.50829734 -104 30 C-104 31.32 -104 32.64 -104 34 C-98.23080002 35.92306666 -91.89468092 36.17165656 -86.2109375 33.87109375 C-83.81238337 32.41292513 -81.89179941 31.07397269 -80 29 C-79.2444568 25.7412565 -79.2444568 25.7412565 -80 23 C-80.99 22.67 -81.98 22.34 -83 22 C-80.57397319 19.57397319 -79.06735445 19.34748895 -75.75 18.5625 C-74.66074219 18.30339844 -73.57148438 18.04429687 -72.44921875 17.77734375 C-69.15824935 17.03566435 -65.86299559 16.32295427 -62.5625 15.625 C-42.74174049 11.41663192 -23.19260398 6.45625215 -4.1171875 -0.43359375 C-2 -1 -2 -1 0 0 Z " fill="#F8F8F9" transform="translate(354,655)"/>
<path d="M0 0 C6.36561003 1.69407364 12.68537066 3.487609 18.97412109 5.44775391 C37.17775815 11.1185791 55.42351026 15.94621974 74.19287109 19.35205078 C75.19914551 19.54009277 76.20541992 19.72813477 77.2421875 19.921875 C78.1379248 20.08268555 79.03366211 20.24349609 79.95654297 20.40917969 C80.63088379 20.60415039 81.30522461 20.79912109 82 21 C82.495 21.99 82.495 21.99 83 23 C81.68 23.99 80.36 24.98 79 26 C79.29459009 29.53508103 79.74881413 30.76203444 82.375 33.25 C86.59195734 36.06130489 89.72116764 36.11167161 94.6875 36.0625 C95.86699219 36.05347656 97.04648437 36.04445313 98.26171875 36.03515625 C99.16535156 36.02355469 100.06898438 36.01195312 101 36 C99.53582514 30.85941567 99.53582514 30.85941567 95.875 27.1875 C94.92625 26.465625 93.9775 25.74375 93 25 C93 24.67 93 24.34 93 24 C108.14614175 25.03350144 126.53506869 27.46021616 138.64453125 37.375 C140.95179475 40.14105653 141 42.46093763 141 46 C131.96476436 53.4863381 119.21779508 53.84422581 108 53 C68.2786294 48.70255064 28.59277717 28.71403933 0 1 C0 0.67 0 0.34 0 0 Z " fill="#F9F9F9" transform="translate(671,654)"/>
<path d="M0 0 C0.66 0 1.32 0 2 0 C3.00541491 1.10475231 3.95363828 2.26173243 4.875 3.4375 C17.1721679 17.84784582 34.50019546 24.91653596 51.81201172 31.19775391 C54.22826082 32.08369394 56.61989558 33.02112616 59 34 C58.41992188 34.72703125 58.41992188 34.72703125 57.828125 35.46875 C51.73636323 43.30963149 47.84486818 50.09063206 47.9375 60.1875 C47.94652344 61.45980469 47.95554687 62.73210938 47.96484375 64.04296875 C47.97644531 65.01878906 47.98804688 65.99460937 48 67 C44.83452814 68.05515729 42.39004323 68.17401723 39.0625 68.3125 C31.92243321 68.76571964 25.09489274 70.04139232 18.10571289 71.5402832 C13.0760623 72.61601789 8.11374715 73.43572445 3 74 C2.65903639 71.37579796 2.32713649 68.75093341 2 66.125 C1.90460938 65.39796875 1.80921875 64.6709375 1.7109375 63.921875 C1.01573973 58.2609789 0.89265171 52.6998961 1 47 C1.78310547 47.36967896 1.78310547 47.36967896 2.58203125 47.74682617 C23.45773543 57.69889468 23.45773543 57.69889468 46 62 C43.17085797 58.88938616 40.66773983 57.14561314 36.81640625 55.484375 C35.8119043 55.0414209 34.80740234 54.5984668 33.77246094 54.14208984 C32.18353027 53.45300537 32.18353027 53.45300537 30.5625 52.75 C22.43671174 49.14352899 14.77827838 45.4062246 7.390625 40.4609375 C5.18936275 39.11572168 3.52101519 38.43587646 1 38 C1 37.01 1 36.02 1 35 C0.34 35 -0.32 35 -1 35 C-1.0247636 30.65836985 -1.04289015 26.3167774 -1.05493164 21.97509766 C-1.05995288 20.49885339 -1.06677116 19.02261408 -1.07543945 17.54638672 C-1.08760189 15.42153702 -1.09325046 13.29675322 -1.09765625 11.171875 C-1.10289307 9.8940918 -1.10812988 8.61630859 -1.11352539 7.29980469 C-1.02194632 4.6379064 -0.80108514 2.51690418 0 0 Z " fill="#F9F9F9" transform="translate(426,602)"/>
<path d="M0 0 C1.32 0 2.64 0 4 0 C5.52392578 1.63647461 5.52392578 1.63647461 6.9453125 3.90234375 C7.46480469 4.70994141 7.98429688 5.51753906 8.51953125 6.34960938 C9.04933594 7.20361328 9.57914063 8.05761719 10.125 8.9375 C11.18616911 10.61577584 12.25109151 12.29168621 13.3203125 13.96484375 C13.78711426 14.7137085 14.25391602 15.46257324 14.73486328 16.23413086 C15.89321974 18.14103848 15.89321974 18.14103848 18 19 C16.85480395 16.37472029 15.70887219 13.74976607 14.5625 11.125 C14.23701172 10.37863281 13.91152344 9.63226562 13.57617188 8.86328125 C13.10727539 7.79013672 13.10727539 7.79013672 12.62890625 6.6953125 C12.34088135 6.03547363 12.05285645 5.37563477 11.75610352 4.69580078 C11.20067688 3.45008125 10.60996982 2.21993963 10 1 C14.76279218 3.1877441 18.18473457 6.45953593 22 10 C22.86238281 10.79664063 23.72476563 11.59328125 24.61328125 12.4140625 C36.32278827 23.64326442 44.40290589 36.75544855 52 51 C52.433125 51.66773438 52.86625 52.33546875 53.3125 53.0234375 C54.45077886 56.29598923 53.82128657 58.67591343 53 62 C51.57233668 64.41059818 50.19428721 66.49028032 48.5 68.6875 C48.05366211 69.28763916 47.60732422 69.88777832 47.14746094 70.50610352 C46.22584981 71.7421371 45.29841551 72.97384997 44.36523438 74.20117188 C43.07659881 75.89907367 41.80826102 77.60992382 40.546875 79.328125 C36.55622949 84.73042743 32.5198 90.02822 28 95 C27.67 95 27.34 95 27 95 C23.03409091 75.86352604 23.03409091 75.86352604 22.0625 68.0625 C19.15009742 46.62119134 12.78785485 25.15494181 2.6015625 6.0546875 C1 3 1 3 0 0 Z " fill="#FAFAFB" transform="translate(531,690)"/>
<path d="M0 0 C0.99 0.33 1.98 0.66 3 1 C2.23816406 2.43666016 2.23816406 2.43666016 1.4609375 3.90234375 C-3.63246691 13.67775265 -7.76835347 23.46164218 -11 34 C-11.24991699 34.81194824 -11.49983398 35.62389648 -11.75732422 36.46044922 C-15.96254999 50.47875732 -18.3818681 64.61156783 -20.35180664 79.08203125 C-20.44822952 79.77605545 -20.5446524 80.47007965 -20.64399719 81.18513489 C-20.90584473 83.08302987 -21.15783502 84.98227735 -21.40917969 86.8815918 C-21.93417284 89.65255774 -22.57519922 91.59387701 -24 94 C-31.97689958 85.75800708 -38.46393996 76.39073801 -45 67 C-46.10794922 65.42798828 -46.10794922 65.42798828 -47.23828125 63.82421875 C-47.79902344 62.97472656 -48.35976563 62.12523437 -48.9375 61.25 C-49.40027344 60.55390625 -49.86304688 59.8578125 -50.33984375 59.140625 C-51.69176765 54.75687177 -48.96812274 50.83310791 -47.00390625 46.96875 C-41.54121646 36.81776169 -35.45751057 27.77644699 -28 19 C-27.30003906 18.14792969 -26.60007812 17.29585937 -25.87890625 16.41796875 C-21.20791576 10.90112486 -15.98314096 6.08143631 -10 2 C-9.34 2 -8.68 2 -8 2 C-8.94989547 5.14196193 -9.89145497 7.82465802 -11.625 10.625 C-13.33402418 13.11956547 -13.33402418 13.11956547 -13 17 C-11.39553069 14.91689914 -9.79141482 12.83352773 -8.1875 10.75 C-7.73568359 10.16347656 -7.28386719 9.57695313 -6.81835938 8.97265625 C-4.5268922 5.99542152 -2.24468847 3.01280445 0 0 Z " fill="#F9F9FA" transform="translate(490,691)"/>
<path d="M0 0 C1.71219727 -0.02320313 1.71219727 -0.02320313 3.45898438 -0.046875 C11.3734286 -0.01029756 17.14780737 0.97900511 23.12109375 6.3515625 C23.80365234 7.22941406 23.80365234 7.22941406 24.5 8.125 C24.97308594 8.71539063 25.44617188 9.30578125 25.93359375 9.9140625 C29.08230283 14.33750847 28.56472974 19.26549284 28.0625 24.5 C26.33503145 30.38326431 23.12147578 34.02815388 18.0625 37.5 C7.79012391 42.54607948 -2.99319354 42.74392393 -13.9375 39.5 C-19.39676392 37.11626034 -23.02146494 34.26748652 -25.5625 28.8125 C-27.62079982 22.47560473 -27.80307554 16.21249532 -24.765625 10.16796875 C-18.22106313 0.6853912 -10.89603685 -0.14716088 0 0 Z " fill="#F7F7F8" transform="translate(511.9375,640.5)"/>
<path d="M0 0 C0.99 0.495 0.99 0.495 2 1 C0.72984669 3.22955653 -0.54110048 5.45865426 -1.8125 7.6875 C-2.16892578 8.31333984 -2.52535156 8.93917969 -2.89257812 9.58398438 C-3.41948242 10.50727539 -3.41948242 10.50727539 -3.95703125 11.44921875 C-4.30330566 12.05685059 -4.64958008 12.66448242 -5.00634766 13.29052734 C-5.87283841 14.78123208 -6.78253327 16.24665645 -7.69921875 17.70703125 C-9.10480029 19.85503077 -9.10480029 19.85503077 -9.27294922 21.98388672 C-10 24 -10 24 -12.12280273 25.3527832 C-13.05036377 25.74812256 -13.9779248 26.14346191 -14.93359375 26.55078125 C-16.48143555 27.22234253 -16.48143555 27.22234253 -18.06054688 27.9074707 C-19.17494141 28.37113037 -20.28933594 28.83479004 -21.4375 29.3125 C-22.57896484 29.7974292 -23.72042969 30.2823584 -24.89648438 30.78198242 C-27.20100346 31.7556385 -29.50877613 32.7216316 -31.81982422 33.6796875 C-34.48489426 34.78614373 -37.13639608 35.91783867 -39.78515625 37.0625 C-60.33054779 45.72602163 -91.67370343 55.75577751 -113.6171875 48.04296875 C-120.35531136 45.0936588 -126.86063534 41.9922213 -130 35 C-130.25 31.125 -130.25 31.125 -130 28 C-127.81452185 29.05226726 -125.81725971 30.12530763 -123.8125 31.5 C-109.02909558 39.38448236 -84.52472115 36.45378282 -69 32 C-68.23123535 31.77957031 -67.4624707 31.55914063 -66.67041016 31.33203125 C-43.27992277 24.40965565 -19.7305756 14.51533231 0 0 Z " fill="#F8F8F8" transform="translate(338,681)"/>
<path d="M0 0 C3.21536982 1.19333313 5.86300603 2.47845548 8.625 4.5 C35.12314403 22.53284677 68.34361747 35.22171617 100.5 35.4375 C102.09231445 35.45272705 102.09231445 35.45272705 103.71679688 35.46826172 C113.90915308 35.35526089 123.40454934 33.66518339 132 28 C131.60054015 33.7921679 131.10570862 37.60784659 127 42 C110.32610552 52.40251924 91.88875974 51.67369653 73.31640625 47.37890625 C55.31193 42.86686826 38.23051997 35.961099 21.43847656 28.12402344 C19.48610896 27.22407345 17.50122876 26.39479148 15.5078125 25.58984375 C12.06733286 23.40872971 11.14163823 21.06868603 9.5 17.375 C8.92028789 16.11621055 8.33561937 14.85969223 7.74609375 13.60546875 C7.45847168 12.9923584 7.17084961 12.37924805 6.87451172 11.74755859 C5.24247009 8.48620907 3.16889378 5.544051 1.06640625 2.57421875 C0 1 0 1 0 0 Z " fill="#F7F7F7" transform="translate(685,681)"/>
<path d="M0 0 C0.98151473 7.39669501 1.18325821 14.66792906 1.1875 22.125 C1.19974609 23.26582031 1.21199219 24.40664063 1.22460938 25.58203125 C1.23482906 31.44812952 1.02645703 36.47329901 -1 42 C-2.27359375 41.88269531 -3.5471875 41.76539063 -4.859375 41.64453125 C-11.03355747 41.65056544 -15.15572089 44.47107336 -20.25 47.6875 C-27.99973816 52.36124077 -35.35387444 56.22591737 -44 59 C-45.485 59.495 -45.485 59.495 -47 60 C-47.2475 58.72125 -47.495 57.4425 -47.75 56.125 C-49.21442618 49.50370165 -51.65920307 42.91761316 -55 37 C-57.0335948 35.73195434 -57.0335948 35.73195434 -59 35 C-58 33 -58 33 -56.35205078 32.2890625 C-55.64032715 32.06992187 -54.92860352 31.85078125 -54.1953125 31.625 C-52.99249634 31.23852295 -52.99249634 31.23852295 -51.76538086 30.84423828 C-50.89405518 30.56563965 -50.02272949 30.28704102 -49.125 30 C-30.92348028 23.8808771 -15.51665845 15.21972818 -2.2421875 1.21484375 C-1 0 -1 0 0 0 Z " fill="#F9F9F9" transform="translate(599,602)"/>
<path d="M0 0 C0.06783004 5.776858 -0.08795434 11.38771495 -0.75 17.125 C-0.83652832 17.88216309 -0.92305664 18.63932617 -1.01220703 19.41943359 C-4.26290162 46.36383867 -9.49919469 75.11395983 -23 99 C-23.33 99 -23.66 99 -24 99 C-24.04898438 98.25234375 -24.09796875 97.5046875 -24.1484375 96.734375 C-24.22320313 95.74953125 -24.29796875 94.7646875 -24.375 93.75 C-24.44460938 92.77546875 -24.51421875 91.8009375 -24.5859375 90.796875 C-24.98465249 88.10366811 -25.63507063 86.33036721 -27 84 C-25.515 83.505 -25.515 83.505 -24 83 C-23.91846067 81.41753293 -23.86056443 79.83383727 -23.8125 78.25 C-23.77769531 77.36828125 -23.74289062 76.4865625 -23.70703125 75.578125 C-24.05076316 72.55328417 -25.00227459 71.24416398 -27 69 C-25.125 65.125 -25.125 65.125 -24 64 C-23.76209269 61.93335994 -23.76209269 61.93335994 -23.75 59.5625 C-23.72421875 58.75941406 -23.6984375 57.95632813 -23.671875 57.12890625 C-23.83429687 56.07509766 -23.83429687 56.07509766 -24 55 C-24.99 54.34 -25.98 53.68 -27 53 C-26.38722388 50.03824877 -25.74627478 48.61941217 -24 46 C-23.75944532 43.94290404 -23.75944532 43.94290404 -23.875 41.8125 C-23.91625 40.554375 -23.9575 39.29625 -24 38 C-24.99 37.67 -25.98 37.34 -27 37 C-27.68199758 32.56701573 -26.76619387 30.3275849 -24.25 26.8125 C-19.10659181 19.58984169 -16.66354671 11.79199389 -16 3 C-13.52106202 2.49884286 -11.04186812 1.9990206 -8.5625 1.5 C-7.85544922 1.35691406 -7.14839844 1.21382813 -6.41992188 1.06640625 C-1.11328125 0 -1.11328125 0 0 0 Z " fill="#F9F9F9" transform="translate(650,411)"/>
<path d="M0 0 C5.82259662 5.69026488 7.29819781 11.30061304 7.4375 19.4375 C7.42731896 34.0489888 1.27285868 48.87856603 -8.62109375 59.625 C-10.32704376 61.32611729 -11.88113849 62.83097296 -14 64 C-14.99 63.67 -15.98 63.34 -17 63 C-19.33299825 62.96045766 -21.66708189 62.95598268 -24 63 C-24.66 65.64 -25.32 68.28 -26 71 C-26.66 71 -27.32 71 -28 71 C-26.99478589 65.34889693 -25.95352369 59.70820986 -24.81640625 54.08203125 C-22.38615012 41.97397649 -20.28670904 29.95144786 -19.07641602 17.65356445 C-18.45362096 11.83763221 -17.70151227 7.78593453 -13.5 3.453125 C-8.7690709 -0.34147438 -5.95323278 -1.78596983 0 0 Z " fill="#F8F8F8" transform="translate(681,408)"/>
<path d="M0 0 C3.8687604 2.19988337 6.64146777 4.22701094 9 8 C9.66015625 10.68945312 9.66015625 10.68945312 10.0625 13.78125 C10.21847656 14.93496094 10.37445313 16.08867187 10.53515625 17.27734375 C10.68855469 18.50582031 10.84195312 19.73429687 11 21 C11.24556641 22.85818359 11.24556641 22.85818359 11.49609375 24.75390625 C12.09664822 29.33022443 12.67433101 33.90927773 13.25 38.48876953 C14.24961347 46.4212491 15.32239285 54.32517234 16.6328125 62.21289062 C16.97999644 64.8481645 17.0679877 67.34605174 17 70 C4.62966846 65.51548401 -4.17381317 54.79048159 -9.69213867 43.21777344 C-10.48251539 41.48799743 -11.24214497 39.74426952 -12 38 C-12.36351562 37.16726563 -12.72703125 36.33453125 -13.1015625 35.4765625 C-15.04405199 30.15740904 -15.29381479 24.92029319 -15.375 19.3125 C-15.39614868 18.24261841 -15.39614868 18.24261841 -15.41772461 17.15112305 C-15.36193935 11.0761788 -14.01275475 6.31771759 -9.9375 1.625 C-6.34449444 -1.38848853 -4.51423242 -1.1285581 0 0 Z " fill="#FAFAFA" transform="translate(367,408)"/>
<path d="M0 0 C12.64437024 -0.49933182 29.89713192 1.31397686 40.31640625 9.19140625 C42.56733407 11.75879104 43.26907687 12.80488296 43.69140625 16.25390625 C43.26914401 19.56162709 42.85382339 20.18358764 40.31640625 22.19140625 C32.53159037 23.26517396 25.75424242 20.70790358 18.40234375 18.4375 C6.84822597 14.87326805 -7.17252545 12.40719289 -18.46484375 18.08740234 C-21.15537662 19.52675735 -23.82788308 20.98475434 -26.45629883 22.53515625 C-31.17880601 25.24534689 -31.17880601 25.24534689 -34.1328125 24.9296875 C-35.68359375 24.19140625 -35.68359375 24.19140625 -36.36328125 22.4296875 C-36.68359375 20.19140625 -36.68359375 20.19140625 -35.56640625 18.296875 C-25.2380427 7.02748278 -15.35351345 1.0950832 0 0 Z " fill="#1F1F1F" transform="translate(441.68359375,366.80859375)"/>
<path d="M0 0 C14.97022083 1.2246443 29.40036395 4.56915815 44 8 C44.30840807 15.63309969 43.13339612 22.96444741 42 30.5 C41.71382812 32.4490625 41.71382812 32.4490625 41.421875 34.4375 C40.95300896 37.6257891 40.47891055 40.8132069 40 44 C39.34 44 38.68 44 38 44 C36.95531036 42.30961298 35.99184776 40.56894455 35.0625 38.8125 C31.52597543 32.54185559 27.29245563 27.30326729 22.55078125 21.91015625 C20.98208761 20.12045218 19.45610611 18.29080503 18.0078125 16.40234375 C15.75251997 13.70389063 13.32312369 11.67480479 10.5625 9.5 C6.79603454 6.52454467 3.34353566 3.44669375 0 0 Z " fill="#F7F7F7" transform="translate(550,681)"/>
<path d="M0 0 C-2.71536231 2.77730974 -5.47311548 5.44991412 -8.3828125 8.0234375 C-19.63864739 18.04961817 -28.32660143 29.03460242 -36 42 C-38.60954928 39.39045072 -38.54637712 37.70549396 -39.0703125 34.07421875 C-39.24433594 32.88505859 -39.41835938 31.69589844 -39.59765625 30.47070312 C-39.77167969 29.22224609 -39.94570313 27.97378906 -40.125 26.6875 C-40.30675781 25.45064453 -40.48851562 24.21378906 -40.67578125 22.93945312 C-42.11728946 12.90850691 -42.11728946 12.90850691 -42 8 C-36.09767822 5.19289857 -30.18972851 3.68405301 -23.8125 2.3125 C-22.79470459 2.09118408 -21.77690918 1.86986816 -20.72827148 1.6418457 C-13.70817129 0.18556324 -7.17807775 -0.69465269 0 0 Z " fill="#F7F7F7" transform="translate(473,682)"/>
<path d="M0 0 C1.0621875 0.55429687 2.124375 1.10859375 3.21875 1.6796875 C4.64561071 2.41189234 6.07270673 3.14363873 7.5 3.875 C8.19609375 4.23980469 8.8921875 4.60460937 9.609375 4.98046875 C15.78886333 8.1274304 21.93089636 10.44181898 29 10 C29.33 9.01 29.66 8.02 30 7 C33.88498901 7.99615103 36.82094103 9.46535881 40.0625 11.75 C50.73718657 19.02657801 61.41650243 22.15851255 74 24 C63.20713497 30.1452198 47.07263541 29.22371434 35.4375 26.4375 C21.07066657 22.1751407 8.89579471 14.1575861 0 2 C0 1.34 0 0.68 0 0 Z " fill="#F4F4F4" transform="translate(317,311)"/>
<path d="M0 0 C0.28994872 9.13338455 -0.8258212 17.96301675 -2 27 C-7.97390575 26.3408104 -13.75204177 25.25950737 -19.625 24 C-26.90254779 22.48055647 -33.91041966 21.48529764 -41.34765625 21.17578125 C-44 21 -44 21 -47 20 C-46.67 18.35 -46.34 16.7 -46 15 C-45.40316406 14.99742187 -44.80632813 14.99484375 -44.19140625 14.9921875 C-30.11134473 14.36454731 -17.364217 7.99407068 -5.09765625 1.5390625 C-2 0 -2 0 0 0 Z " fill="#F7F7F7" transform="translate(598,649)"/>
<path d="M0 0 C13.05744794 6.15742213 27.44120643 16.35362582 32.8125 30.25 C34.77441693 36.80840801 35.09225143 43.3148819 32.5 49.6875 C32.005 50.450625 31.51 51.21375 31 52 C28.64348924 49.64348924 27.80014701 47.47725103 26.4375 44.4375 C23.76135773 38.97452344 20.70171819 35.32935264 16.3046875 31.19140625 C7.0614295 22.40247788 2.24038049 12.5697137 0 0 Z " fill="#F7F7F8" transform="translate(652,341)"/>
<path d="M0 0 C2.23394141 2.23394141 2.71914791 3.73510345 3.75 6.6875 C6.15300935 12.90652421 9.44940553 17.29960369 15 21 C15 21.66 15 22.32 15 23 C4.84706673 23.7903481 -4.85101699 24.14727634 -15 23 C-15 22.34 -15 21.68 -15 21 C-13.80987466 19.93390757 -12.57121392 18.92167003 -11.3125 17.9375 C-5.58412225 13.08105232 -2.49146322 7.02139635 0 0 Z " fill="#F6F6F6" transform="translate(512,497)"/>
<path d="M0 0 C3.48490861 2.55559965 4.78400797 4.30120225 6.0625 8.4375 C5.97070285 13.66993761 3.59844372 16.40155628 0 20 C-5.05385735 20.65211063 -5.05385735 20.65211063 -8 20 C-11.09274642 16.90725358 -12.23947857 14.22796224 -12.5 9.9375 C-11.95015913 5.60750311 -11.09137898 4.00045607 -8 1 C-5.11138291 -0.44430855 -3.20352299 -0.37688506 0 0 Z " fill="#1F1F1E" transform="translate(452,401)"/>
<path d="M0 0 C1.8125 0.9375 1.8125 0.9375 3.8125 3.9375 C4.23140051 6.63587212 4.20096696 9.23512116 3.8125 11.9375 C2.3125 13.9375 2.3125 13.9375 0.8125 14.9375 C1.13992188 15.44796875 1.46734375 15.9584375 1.8046875 16.484375 C3.16898384 19.80522037 3.0037273 22.61122568 2.9375 26.1875 C2.91945313 27.45078125 2.90140625 28.7140625 2.8828125 30.015625 C2.85960937 30.97984375 2.83640625 31.9440625 2.8125 32.9375 C0.5025 33.5975 -1.8075 34.2575 -4.1875 34.9375 C-3.8575 33.9475 -3.5275 32.9575 -3.1875 31.9375 C-3.8475 31.40125 -4.5075 30.865 -5.1875 30.3125 C-7.1875 27.9375 -7.1875 27.9375 -7.625 25 C-7.1875 21.9375 -7.1875 21.9375 -5.5625 19.3125 C-5.10875 18.52875 -4.655 17.745 -4.1875 16.9375 C-4.90208891 14.79373326 -5.59974417 13.52525583 -7.1875 11.9375 C-7.47570584 9.00740733 -7.68455653 6.78729076 -7.1875 3.9375 C-4.86964353 1.29771903 -3.59643992 -0.10275543 0 0 Z " fill="#1F1F1E" transform="translate(623.1875,480.0625)"/>
<path d="M0 0 C1.28208512 3.84625536 0.58339407 6.11204871 -0.25 10.0625 C-0.50265625 11.31160156 -0.7553125 12.56070312 -1.015625 13.84765625 C-2 17 -2 17 -5 19 C-10.34545455 19.32727273 -10.34545455 19.32727273 -13 18 C-13.81462495 22.65499974 -14.43393721 27.30976546 -15 32 C-16.32 32 -17.64 32 -19 32 C-21.02512352 27.82318275 -21.70408743 24.61568427 -21 20 C-17.3483141 14.15260586 -11.7461565 9.98604685 -6.33203125 5.859375 C-4.04851314 4.03868049 -2.02349847 2.10257772 0 0 Z " fill="#F2F2F2" transform="translate(378,362)"/>
<path d="M0 0 C0.87454834 0.04713135 1.74909668 0.0942627 2.65014648 0.14282227 C4.06650391 0.21533203 4.06650391 0.21533203 5.51147461 0.28930664 C6.50469727 0.34538086 7.49791992 0.40145508 8.52124023 0.45922852 C9.51833008 0.51143555 10.51541992 0.56364258 11.54272461 0.61743164 C14.01501545 0.74755221 16.48694653 0.88253033 18.95874023 1.02172852 C18.95874023 1.68172852 18.95874023 2.34172852 18.95874023 3.02172852 C17.32111304 4.47575194 15.62139828 5.86021529 13.89624023 7.20922852 C9.73334645 10.52452279 5.91542069 13.90706818 2.29858398 17.80688477 C0.95874023 19.02172852 0.95874023 19.02172852 -1.04125977 19.02172852 C-2.62995446 13.02156909 -3.6388053 7.24731924 -3.04125977 1.02172852 C-2.04125977 0.02172852 -2.04125977 0.02172852 0 0 Z " fill="#EFEFEF" transform="translate(352.041259765625,350.978271484375)"/>
<path d="M0 0 C1.010625 0.804375 2.02125 1.60875 3.0625 2.4375 C3.0625 3.0975 3.0625 3.7575 3.0625 4.4375 C-6.59295136 3.79527961 -16.10848277 2.26452793 -25.66210938 0.78515625 C-28.75086389 0.31322638 -31.84332553 -0.12764305 -34.9375 -0.5625 C-34.9375 -1.8825 -34.9375 -3.2025 -34.9375 -4.5625 C-23.99915183 -7.47939284 -9.66218602 -5.80074401 0 0 Z " fill="#1F1F1F" transform="translate(572.9375,260.5625)"/>
<path d="M0 0 C1.3337337 0.7989087 2.65663528 1.61881542 3.9375 2.5 C3.6075 3.49 3.2775 4.48 2.9375 5.5 C-3.6875 5.625 -3.6875 5.625 -7.0625 4.5 C-8.98156917 4.41733514 -10.90339474 4.39259337 -12.82421875 4.40234375 C-14.50161133 4.40717773 -14.50161133 4.40717773 -16.21289062 4.41210938 C-17.38013672 4.42048828 -18.54738281 4.42886719 -19.75 4.4375 C-20.92884766 4.44201172 -22.10769531 4.44652344 -23.32226562 4.45117188 C-26.23572789 4.46296727 -29.14908863 4.4794273 -32.0625 4.5 C-32.0625 3.51 -32.0625 2.52 -32.0625 1.5 C-22.4874668 -4.07092841 -10.0574504 -5.0287252 0 0 Z " fill="#212121" transform="translate(462.0625,391.5)"/>
<path d="M0 0 C0.70125 0.268125 1.4025 0.53625 2.125 0.8125 C2.125 2.1325 2.125 3.4525 2.125 4.8125 C1.3 5.3075 0.475 5.8025 -0.375 6.3125 C-3.46054587 9.39804587 -3.26561867 10.49421661 -3.3125 14.75 C-3.22229133 18.94735655 -2.49606973 21.96490076 -0.875 25.8125 C-0.875 26.8025 -0.875 27.7925 -0.875 28.8125 C-2.76953125 28.578125 -2.76953125 28.578125 -4.875 27.8125 C-5.88671875 25.921875 -5.88671875 25.921875 -6.5625 23.5625 C-6.7996875 22.74265625 -7.036875 21.9228125 -7.28125 21.078125 C-7.4771875 20.33046875 -7.673125 19.5828125 -7.875 18.8125 C-8.101875 17.9875 -8.32875 17.1625 -8.5625 16.3125 C-9.82404459 6.22014331 -9.82404459 6.22014331 -7.7109375 3.0859375 C-5.14956488 0.73472878 -3.49057565 -0.22764624 0 0 Z " fill="#1C1C1C" transform="translate(501.875,646.1875)"/>
<path d="M0 0 C0.70253906 0.00386719 1.40507812 0.00773438 2.12890625 0.01171875 C2.83144531 0.00785156 3.53398438 0.00398437 4.2578125 0 C9.50229247 0.01010497 9.50229247 0.01010497 10.62890625 1.13671875 C10.31640625 4.63671875 10.31640625 4.63671875 9.62890625 8.13671875 C6.92848444 9.48692965 4.70438998 9.37982882 1.69140625 9.44921875 C0.63050781 9.48660156 -0.43039062 9.52398438 -1.5234375 9.5625 C-4.37109375 9.13671875 -4.37109375 9.13671875 -6.265625 7.25390625 C-7.37109375 5.13671875 -7.37109375 5.13671875 -7.12109375 2.94921875 C-5.61892645 -0.68101889 -3.68533993 0.00710085 0 0 Z " fill="#232222" transform="translate(509.37109375,538.86328125)"/>
<path d="M0 0 C-1 3 -1 3 -3.046875 4.16796875 C-12.61568471 7.77701403 -22.29305627 8.61188604 -32 5 C-29.61012986 2.61012986 -28.63581576 2.60721664 -25.3515625 2.18359375 C-24.42859375 2.05919922 -23.505625 1.93480469 -22.5546875 1.80664062 C-21.58789062 1.68482422 -20.62109375 1.56300781 -19.625 1.4375 C-17.72111724 1.18799924 -15.81746109 0.93676167 -13.9140625 0.68359375 C-13.0679541 0.57587646 -12.2218457 0.46815918 -11.35009766 0.35717773 C-9.01861551 0.04684636 -9.01861551 0.04684636 -6.86474609 -0.57006836 C-4.37337034 -1.14447432 -2.4513382 -0.61283455 0 0 Z " fill="#171717" transform="translate(403,303)"/>
<path d="M0 0 C1.984375 1.546875 1.984375 1.546875 4 4 C4.390625 7.453125 4.390625 7.453125 4.25 11.25 C4.21390625 12.51328125 4.1778125 13.7765625 4.140625 15.078125 C4.07101562 16.52445312 4.07101562 16.52445312 4 18 C1.69 18.66 -0.62 19.32 -3 20 C-2.67 19.01 -2.34 18.02 -2 17 C-2.66 16.46375 -3.32 15.9275 -4 15.375 C-6 13 -6 13 -6.5 10.0625 C-5.89649521 6.36603315 -4.53641621 4.69494222 -2 2 C-1.67 2.33 -1.34 2.66 -1 3 C-0.67 2.01 -0.34 1.02 0 0 Z " fill="#2D2C2C" transform="translate(622,495)"/>
<path d="M0 0 C4.05886955 0.23416555 6.35661366 0.45312161 9.5 3.125 C11.4374623 6.83846941 10.94196798 8.99663607 10 13 C6.75 13.8125 6.75 13.8125 3 14 C0.5 12.125 0.5 12.125 -1 9 C-1.02056409 5.92052709 -0.60428795 3.01487142 0 0 Z " fill="#262424" transform="translate(628,561)"/>
<path d="M0 0 C3.53924411 2.83139529 5.74349071 4.61723947 8.3125 8.0625 C8.82425781 8.73410156 9.33601562 9.40570313 9.86328125 10.09765625 C11 12 11 12 11 15 C6.545 16.485 6.545 16.485 2 18 C1.34 12.06 0.68 6.12 0 0 Z " fill="#F2F2F2" transform="translate(662,379)"/>
<path d="M0 0 C0.99 0.33 1.98 0.66 3 1 C4.0234375 3.2109375 4.0234375 3.2109375 5 6 C6.30951945 8.8333239 7.6397122 11.65604019 8.9765625 14.4765625 C10 17 10 17 10 20 C6.61043834 18.87014611 6.21425749 18.26130237 4.30078125 15.40234375 C3.81416016 14.68369141 3.32753906 13.96503906 2.82617188 13.22460938 C2.32666016 12.46986328 1.82714844 11.71511719 1.3125 10.9375 C0.80138672 10.17888672 0.29027344 9.42027344 -0.23632812 8.63867188 C-1.49806185 6.76375915 -2.75220179 4.8842038 -4 3 C-3.01 3 -2.02 3 -1 3 C-0.67 2.01 -0.34 1.02 0 0 Z " fill="#232323" transform="translate(539,689)"/>
<path d="M0 0 C4.95688708 0.5058048 11.26596638 1.26596638 15 5 C15.04063832 6.66617115 15.042721 8.33388095 15 10 C14.01 10.33 13.02 10.66 12 11 C11.814375 10.360625 11.62875 9.72125 11.4375 9.0625 C10.963125 8.381875 10.48875 7.70125 10 7 C7.6739143 6.61936779 5.33944736 6.28730055 3 6 C1.0625 4.625 1.0625 4.625 0 3 C0 2.01 0 1.02 0 0 Z " fill="#1A1919" transform="translate(518,646)"/>
<path d="M0 0 C-0.804375 0.12375 -1.60875 0.2475 -2.4375 0.375 C-3.283125 0.58125 -4.12875 0.7875 -5 1 C-5.33 1.66 -5.66 2.32 -6 3 C-10.29 3 -14.58 3 -19 3 C-19 1.68 -19 0.36 -19 -1 C-12.81132958 -2.65031211 -5.65560762 -3.30454672 0 0 Z " fill="#1D1D1E" transform="translate(557,257)"/>
<path d="M0 0 C0 3.63 0 7.26 0 11 C-2.97 10.01 -5.94 9.02 -9 8 C-7.10545171 4.21090343 -4.73255948 0 0 0 Z " fill="#E7E7E7" transform="translate(376,386)"/>
<path d="M0 0 C0 4.18270011 -2.32133687 5.88478423 -5.0625 8.75 C-5.56112549 9.28206055 -6.05975098 9.81412109 -6.57348633 10.36230469 C-10.30216074 14.32270463 -14.11068772 18.19711688 -18 22 C-18 15.71969509 -10.81993818 10.78157966 -6.57348633 6.50976562 C-4.39193349 4.32997523 -2.19848813 2.16270803 0 0 Z " fill="#303032" transform="translate(244,224)"/>
<path d="M0 0 C-0.33 0.99 -0.66 1.98 -1 3 C-3.06640625 3.94921875 -3.06640625 3.94921875 -5.5625 4.6875 C-6.38878906 4.93886719 -7.21507812 5.19023437 -8.06640625 5.44921875 C-8.70449219 5.63097656 -9.34257812 5.81273437 -10 6 C-10.33 5.01 -10.66 4.02 -11 3 C-13.00016466 1.79117904 -13.00016466 1.79117904 -15 1 C-13.44033408 0.63355422 -11.87707349 0.28239138 -10.3125 -0.0625 C-9.44238281 -0.25972656 -8.57226562 -0.45695312 -7.67578125 -0.66015625 C-4.83998724 -1.02032279 -2.75210018 -0.70909969 0 0 Z " fill="#2A2A2A" transform="translate(403,303)"/>
<path d="M0 0 C0 4.26812584 -2.51391927 6.07790058 -5.3125 9 C-6.06176758 9.80050781 -6.06176758 9.80050781 -6.82617188 10.6171875 C-9.17607957 13.11960576 -11.55176266 15.59354146 -14 18 C-14.99 17.67 -15.98 17.34 -17 17 C-15.625 15.5 -15.625 15.5 -14 14 C-13.34 14 -12.68 14 -12 14 C-11.67 13.01 -11.34 12.02 -11 11 C-9.33333333 9.66666667 -7.66666667 8.33333333 -6 7 C-3.9183695 4.73268415 -1.94774128 2.38280377 0 0 Z " fill="#282829" transform="translate(786,762)"/>
<path d="M0 0 C0.33 0 0.66 0 1 0 C1.13277344 0.80824219 1.26554687 1.61648438 1.40234375 2.44921875 C1.57894531 3.51785156 1.75554687 4.58648438 1.9375 5.6875 C2.11152344 6.74324219 2.28554688 7.79898438 2.46484375 8.88671875 C2.93167121 11.60249604 3.44422616 14.30124235 4 17 C2.125 16.875 2.125 16.875 0 16 C-3.04499793 10.60204913 -1.45596738 5.66707305 0 0 Z " fill="#303031" transform="translate(497,658)"/>
<path d="M0 0 C2 1 2 1 2.8046875 2.828125 C3 5 3 5 1.8203125 6.921875 C1.26085937 7.52515625 0.70140625 8.1284375 0.125 8.75 C-0.70644531 9.67039062 -0.70644531 9.67039062 -1.5546875 10.609375 C-3 12 -3 12 -4 12 C-3.5317879 7.22423661 -2.75668002 3.95523655 0 0 Z " fill="#282828" transform="translate(480,697)"/>
<path d="M0 0 C0.99 0.33 1.98 0.66 3 1 C-0.96 4.96 -4.92 8.92 -9 13 C-9.66 12.34 -10.32 11.68 -11 11 C-7.37 7.37 -3.74 3.74 0 0 Z " fill="#282829" transform="translate(462,691)"/>
<path d="M0 0 C3.63 0 7.26 0 11 0 C11 0.99 11 1.98 11 3 C7.37 3 3.74 3 0 3 C0 2.01 0 1.02 0 0 Z " fill="#080808" transform="translate(540,257)"/>
<path d="M0 0 C-0.33 0.99 -0.66 1.98 -1 3 C0.65 3 2.3 3 4 3 C4 3.66 4 4.32 4 5 C0.7 5.33 -2.6 5.66 -6 6 C-5.34 4.68 -4.68 3.36 -4 2 C-4.66 1.67 -5.32 1.34 -6 1 C-3.92446352 0.4465236 -2.15634036 0 0 0 Z " fill="#252525" transform="translate(563,658)"/>
<path d="M0 0 C0 1.98 0 3.96 0 6 C-1.9375 6.5625 -1.9375 6.5625 -4 7 C-5 6 -5 6 -5.0625 3.4375 C-5.041875 2.633125 -5.02125 1.82875 -5 1 C-3 0 -3 0 0 0 Z " fill="#EDEDED" transform="translate(665,477)"/>
<path d="M0 0 C0 0.99 0 1.98 0 3 C-0.639375 3.598125 -1.27875 4.19625 -1.9375 4.8125 C-4.47334819 7.50203596 -4.67116942 9.38286362 -5 13 C-5.66 12.67 -6.32 12.34 -7 12 C-6.7589852 5.85412262 -6.7589852 5.85412262 -4.59765625 3.421875 C-3.11953029 2.21155069 -1.56352047 1.09779097 0 0 Z " fill="#29292A" transform="translate(645,733)"/>
<path d="M0 0 C2.475 0.99 2.475 0.99 5 2 C4.67 2.99 4.34 3.98 4 5 C1.36 4.67 -1.28 4.34 -4 4 C-2.68 2.68 -1.36 1.36 0 0 Z " fill="#272727" transform="translate(659,269)"/>
<path d="M0 0 C2.31 0.33 4.62 0.66 7 1 C6.34 2.65 5.68 4.3 5 6 C3.0625 5.25 3.0625 5.25 1 4 C0.25 1.875 0.25 1.875 0 0 Z " fill="#302E2E" transform="translate(518,646)"/>
<path d="M0 0 C0.33 0.99 0.66 1.98 1 3 C-0.64666203 2.8864371 -2.29236082 2.75882619 -3.9375 2.625 C-4.85402344 2.55539062 -5.77054687 2.48578125 -6.71484375 2.4140625 C-7.84599609 2.20910156 -7.84599609 2.20910156 -9 2 C-9.33 1.34 -9.66 0.68 -10 0 C-6.7169902 -1.6415049 -3.57454967 -0.51888624 0 0 Z " fill="#343434" transform="translate(381,307)"/>
<path d="M0 0 C2.97903734 2.97903734 4 5.80285329 4 10 C1 9 1 9 -1 6 C-0.625 2.8125 -0.625 2.8125 0 0 Z " fill="#302F30" transform="translate(545,699)"/>
<path d="M0 0 C0.66 0.33 1.32 0.66 2 1 C1.02433888 2.16959987 0.044375 3.33561177 -0.9375 4.5 C-1.48277344 5.1496875 -2.02804687 5.799375 -2.58984375 6.46875 C-3.05519531 6.9740625 -3.52054688 7.479375 -4 8 C-4.33 8 -4.66 8 -5 8 C-5 6.02 -5 4.04 -5 2 C-2.625 0.9375 -2.625 0.9375 0 0 Z " fill="#DEDFDF" transform="translate(803,741)"/>
<path d="M0 0 C1.32 0 2.64 0 4 0 C3.67 1.65 3.34 3.3 3 5 C1.35 5 -0.3 5 -2 5 C-1.125 1.125 -1.125 1.125 0 0 Z " fill="#151516" transform="translate(555,660)"/>
<path d="M0 0 C0.99 0.33 1.98 0.66 3 1 C2.01 2.98 1.02 4.96 0 7 C-0.99 7 -1.98 7 -3 7 C-3 3.48283697 -2.17554415 2.62878252 0 0 Z " fill="#E4E4E4" transform="translate(490,691)"/>
<path d="M0 0 C1.65 0 3.3 0 5 0 C5.33 1.32 5.66 2.64 6 4 C4.02 4 2.04 4 0 4 C0 2.68 0 1.36 0 0 Z " fill="#0C0C0C" transform="translate(387,305)"/>
<path d="M0 0 C0.33 0 0.66 0 1 0 C1 4.29 1 8.58 1 13 C0.01 12.67 -0.98 12.34 -2 12 C-1.34 8.04 -0.68 4.08 0 0 Z " fill="#29292A" transform="translate(497,658)"/>
<path d="M0 0 C0 3 0 3 -1.2421875 4.60546875 C-1.78101563 5.12753906 -2.31984375 5.64960937 -2.875 6.1875 C-3.40867187 6.71730469 -3.94234375 7.24710938 -4.4921875 7.79296875 C-6 9 -6 9 -8 9 C-6.4169423 4.7257442 -3.49431596 2.73468206 0 0 Z " fill="#232324" transform="translate(382,621)"/>
<path d="M0 0 C0 3 0 3 -1.3125 4.38671875 C-2.875 5.59114583 -4.4375 6.79557292 -6 8 C-6.66 7.67 -7.32 7.34 -8 7 C-5.36 4.69 -2.72 2.38 0 0 Z " fill="#313132" transform="translate(402,603)"/>
<path d="M0 0 C-1.28519565 2.86697492 -2.57129254 4.97607712 -5 7 C-5.66 7 -6.32 7 -7 7 C-3.86206897 0 -3.86206897 0 0 0 Z " fill="#2B2B2B" transform="translate(597,551)"/>
<path d="M0 0 C2.95183101 2.95183101 3.08663988 5.95511947 4 10 C2 8.9375 2 8.9375 0 7 C-0.25 3.3125 -0.25 3.3125 0 0 Z " fill="#3C3C3A" transform="translate(616,468)"/>
<path d="M0 0 C0.99 0.33 1.98 0.66 3 1 C3.125 3.875 3.125 3.875 3 7 C2.34 7.66 1.68 8.32 1 9 C0.67 6.03 0.34 3.06 0 0 Z " fill="#121212" transform="translate(499,788)"/>
<path d="M0 0 C0.66 0 1.32 0 2 0 C0.79618552 2.49361571 -0.45428722 4.68143083 -2 7 C-2.66 7 -3.32 7 -4 7 C-2.92598892 4.08482708 -2.22189824 2.22189824 0 0 Z " fill="#2B2B2B" transform="translate(444,402)"/>
</g>
</svg>
